<?xml version="1.0" encoding="UTF-8" standalone="no"?>
<!-- Generator: Adobe Illustrator 15.1.0, SVG Export Plug-In . SVG Version: 6.00 Build 0)  -->

<svg
   xmlns:dc="http://purl.org/dc/elements/1.1/"
   xmlns:cc="http://creativecommons.org/ns#"
   xmlns:rdf="http://www.w3.org/1999/02/22-rdf-syntax-ns#"
   xmlns:svg="http://www.w3.org/2000/svg"
   xmlns="http://www.w3.org/2000/svg"
   xmlns:xlink="http://www.w3.org/1999/xlink"
   xmlns:sodipodi="http://sodipodi.sourceforge.net/DTD/sodipodi-0.dtd"
   xmlns:inkscape="http://www.inkscape.org/namespaces/inkscape"
   version="1.1"
   id="Calque_1"
   x="0px"
   y="0px"
   width="1028.6538"
   height="1585.5796"
   viewBox="0 0 1028.6538 1585.5797"
   enable-background="new 0 0 281.62 363.244"
   xml:space="preserve"
   inkscape:version="0.48.4 r9939"
   sodipodi:docname="lapin2.svg"><metadata
   id="metadata1753"><rdf:RDF><cc:Work
       rdf:about=""><dc:format>image/svg+xml</dc:format><dc:type
         rdf:resource="http://purl.org/dc/dcmitype/StillImage" /></cc:Work></rdf:RDF></metadata><defs
   id="defs1751" /><sodipodi:namedview
   pagecolor="#ffffff"
   bordercolor="#666666"
   borderopacity="1"
   objecttolerance="10"
   gridtolerance="10"
   guidetolerance="10"
   inkscape:pageopacity="0"
   inkscape:pageshadow="2"
   inkscape:window-width="1920"
   inkscape:window-height="1025"
   id="namedview1749"
   showgrid="false"
   inkscape:zoom="0.32485053"
   inkscape:cx="-106.75081"
   inkscape:cy="397.61292"
   inkscape:window-x="-2"
   inkscape:window-y="-3"
   inkscape:window-maximized="1"
   inkscape:current-layer="Calque_1"
   fit-margin-top="0"
   fit-margin-left="0"
   fit-margin-right="150"
   fit-margin-bottom="0" />
<polygon
   points="43.891,66.108 43.82,68.937 41.107,69.744 43.777,70.686 43.706,73.514 45.426,71.267 48.094,72.209 46.489,69.879 48.209,67.632 45.497,68.438 "
   id="polygon3"
   style="fill:#ffffff"
   transform="matrix(5,0,0,5,-120.47771,-90.015)" />
<polygon
   points="52.301,57.611 51.251,60.243 48.424,60.059 50.603,61.87 49.555,64.502 51.95,62.99 54.127,64.799 53.43,62.055 55.826,60.542 52.998,60.357 "
   id="polygon5"
   style="fill:#ffffff"
   transform="matrix(5,0,0,5,-120.47771,-90.015)" />
<polygon
   points="30.077,63.599 31.018,67.521 27.579,69.629 31.599,69.945 32.541,73.867 34.085,70.141 38.107,70.458 35.039,67.837 36.584,64.111 33.145,66.219 "
   id="polygon7"
   style="fill:#ffffff"
   transform="matrix(5,0,0,5,-120.47771,-90.015)" />
<polygon
   points="55.82,65.753 56.183,67.264 54.858,68.076 56.407,68.198 56.77,69.709 57.365,68.274 58.914,68.396 57.733,67.385 58.328,65.952 57.002,66.762 "
   id="polygon9"
   style="fill:#ffffff"
   transform="matrix(5,0,0,5,-120.47771,-90.015)" />
<polygon
   points="29.832,72.206 28.217,73.632 28.217,73.632 29.358,74.923 30.972,73.498 "
   id="polygon11"
   style="fill:#ffffff"
   transform="matrix(5,0,0,5,-120.47771,-90.015)" />
<rect
   x="-247.26294"
   y="-20.906208"
   transform="matrix(-0.40361312,-0.91492975,0.91492975,-0.40361312,0,0)"
   width="8.6197195"
   height="10.76465"
   id="rect13"
   style="fill:#ffffff" />
<rect
   x="-113.82877"
   y="-199.06535"
   transform="matrix(-0.99867307,-0.05149861,0.05149861,-0.99867307,0,0)"
   width="10.765291"
   height="8.6152325"
   id="rect15"
   style="fill:#ffffff" />
<rect
   x="-160.73419"
   y="-264.54395"
   transform="matrix(-0.99866792,-0.05159834,0.05159834,-0.99866792,0,0)"
   width="8.4202709"
   height="6.730216"
   id="rect17"
   style="fill:#ffffff" />
<rect
   x="-305.33609"
   y="-52.353611"
   transform="matrix(-0.34449557,-0.93878794,0.93878794,-0.34449557,0,0)"
   width="6.7350864"
   height="8.4151077"
   id="rect19"
   style="fill:#ffffff" />
<polygon
   points="39.962,72.194 38.382,72.773 38.314,74.194 39.896,73.616 "
   id="polygon21"
   style="fill:#ffffff"
   transform="matrix(5,0,0,5,-120.47771,-90.015)" />
<polygon
   points="60.688,60.816 59.005,60.821 59.008,62.167 60.691,62.164 60.688,60.819 "
   id="polygon23"
   style="fill:#ffffff"
   transform="matrix(5,0,0,5,-120.47771,-90.015)" />
<g
   id="g25"
   transform="matrix(5,0,0,5,-120.47771,-90.015)">
	<defs
   id="defs27">
		<rect
   id="SVGID_1_"
   width="281.62"
   height="363.24399"
   x="0"
   y="0" />
	</defs>
	<clipPath
   id="SVGID_2_">
		<use
   xlink:href="#SVGID_1_"
   overflow="visible"
   id="use31"
   style="overflow:visible"
   x="0"
   y="0"
   width="281.62"
   height="363.24399" />
	</clipPath>
	<path
   clip-path="url(#SVGID_2_)"
   clip-rule="evenodd"
   d="m 68.067,330.148 c -0.31,-7.959 7.051,-26.795 3.794,-34.814 -5.009,0.426 -9.641,1.1 -14.079,-0.869 -2.47,-3.234 -4.478,-2.941 -1.199,-5.797 8.015,-6.977 27.04,-6.604 46.667,-6.354 18.975,0.242 37.285,-1.357 45.637,5.543 3.762,3.107 4.52,3.789 -0.021,7.502 -5.102,0.645 -9.696,0.525 -14.615,-0.025 0.164,8.559 3.261,26.986 3.913,35.137 -6.506,4.098 -18.427,4.045 -29.467,4.506 -14.83,0.619 -31.5,-0.75 -40.63,-4.829"
   id="path33"
   inkscape:connector-curvature="0"
   style="fill-rule:evenodd" />
	<path
   clip-path="url(#SVGID_2_)"
   d="m 135.506,288.836 c 0,2.33 -14.637,4.219 -32.691,4.219 -18.057,0 -32.693,-1.889 -32.693,-4.219 0,-2.328 14.637,-4.217 32.693,-4.217 18.054,0 32.691,1.889 32.691,4.217"
   id="path35"
   inkscape:connector-curvature="0"
   style="fill:#ffffff" />
</g>
<g
   id="g37"
   transform="matrix(5,0,0,5,-120.47771,-90.015)">
	<defs
   id="defs39">
		
			<rect
   id="SVGID_3_"
   x="143.416"
   y="78.026001"
   transform="matrix(-0.7558,-0.6548,0.6548,-0.7558,225.0845,258.8105)"
   width="34.777"
   height="18.813999" />
	</defs>
	<clipPath
   id="SVGID_4_">
		<use
   xlink:href="#SVGID_3_"
   overflow="visible"
   id="use43"
   style="overflow:visible"
   x="0"
   y="0"
   width="281.62"
   height="363.24399" />
	</clipPath>
	<polygon
   clip-path="url(#SVGID_4_)"
   points="158.506,88.414 160.928,86.952 159.827,89.559 161.967,91.413 159.147,91.171 158.045,93.777 157.405,91.02 154.584,90.779 157.008,89.318 156.368,86.561 "
   id="polygon45"
   style="fill:#ffffff" />
	<polygon
   clip-path="url(#SVGID_4_)"
   points="169.833,90.003 172.614,89.472 170.674,91.537 172.04,94.02 169.475,92.814 167.538,94.879 167.891,92.069 165.329,90.863 168.11,90.332 168.467,87.521 "
   id="polygon47"
   style="fill:#ffffff" />
	<polygon
   clip-path="url(#SVGID_4_)"
   points="152.815,76.859 155.616,73.956 155.057,77.951 158.684,79.717 154.711,80.419 154.151,84.415 152.256,80.854 148.284,81.555 151.084,78.652 149.19,75.092 "
   id="polygon49"
   style="fill:#ffffff" />
	<polygon
   clip-path="url(#SVGID_4_)"
   points="166.565,97.937 167.643,96.819 167.428,98.357 168.825,99.04 167.295,99.308 167.079,100.848 166.348,99.476 164.819,99.747 165.897,98.627 165.167,97.256 "
   id="polygon51"
   style="fill:#ffffff" />
	
		<rect
   x="145.87801"
   y="78.046997"
   transform="matrix(0.9612,0.2759,-0.2759,0.9612,27.4734,-37.4806)"
   clip-path="url(#SVGID_4_)"
   width="2.154"
   height="1.723"
   id="rect53"
   style="fill:#ffffff" />
	
		<rect
   x="160.24699"
   y="82.250999"
   transform="matrix(0.8324,0.5542,-0.5542,0.8324,73.1072,-75.4776)"
   clip-path="url(#SVGID_4_)"
   width="2.154"
   height="1.723"
   id="rect55"
   style="fill:#ffffff" />
	
		<rect
   x="166.59399"
   y="81.625"
   transform="matrix(0.4934,0.8698,-0.8698,0.4934,156.6875,-104.053)"
   clip-path="url(#SVGID_4_)"
   width="2.1530001"
   height="1.721"
   id="rect57"
   style="fill:#ffffff" />
	
		<rect
   x="160.01801"
   y="96.728996"
   transform="matrix(0.4941,0.8694,-0.8694,0.4941,166.0531,-90.5765)"
   clip-path="url(#SVGID_4_)"
   width="1.684"
   height="1.347"
   id="rect59"
   style="fill:#ffffff" />
	
		<rect
   x="145.726"
   y="85.915001"
   transform="matrix(0.795,0.6067,-0.6067,0.795,82.5824,-71.1632)"
   clip-path="url(#SVGID_4_)"
   width="1.683"
   height="1.346"
   id="rect61"
   style="fill:#ffffff" />
	<polygon
   clip-path="url(#SVGID_4_)"
   points="153.686,86.913 152.45,87.621 151.112,86.6 152.348,85.892 "
   id="polygon63"
   style="fill:#ffffff" />
	
		<rect
   x="172.561"
   y="97.25"
   transform="matrix(0.5399,0.8417,-0.8417,0.5399,162.2121,-100.9034)"
   clip-path="url(#SVGID_4_)"
   width="1.682"
   height="1.346"
   id="rect65"
   style="fill:#ffffff" />
</g>
<g
   id="g67"
   transform="matrix(5,0,0,5,-120.47771,-90.015)">
	<defs
   id="defs69">
		<rect
   id="SVGID_5_"
   width="281.62"
   height="363.24399"
   x="0"
   y="0" />
	</defs>
	<clipPath
   id="SVGID_6_">
		<use
   xlink:href="#SVGID_5_"
   overflow="visible"
   id="use73"
   style="overflow:visible"
   x="0"
   y="0"
   width="281.62"
   height="363.24399" />
	</clipPath>
	<path
   clip-path="url(#SVGID_6_)"
   d="m 90.551,74.839 c 0,0 -4.036,-9.806 -1.744,-16.768 2.287,-6.962 2.395,-9.712 2.395,-9.712 0,0 0.149,-3.94 2.735,-2.439 0,0 1.817,0.345 0.099,4.273 -1.717,3.929 0.85,8.314 0.85,8.314 0,0 5.003,8.787 4.598,13.87 0,0 4.553,-1.771 9.906,3.756 5.352,5.528 5.404,4.479 5.404,4.479 0,0 1.645,0.09 2.004,2.751 0,0 0.504,2.327 1.045,2.775 0.543,0.447 1.375,3.773 -0.789,6.251 0,0 -1.605,0.9 -1.746,1.984 0,0 -0.385,1.429 -1.907,1.531 0,0 -3.285,0.866 -2.067,2.057 0,0 0.602,6.345 0.826,8.711 0,0 4.272,14.604 -21.148,1.264 0,0 -2.264,-5.548 -1.541,-10.572 0,0 -4.552,-4.804 -2.218,-7.41 0,0 0.211,-2.008 -0.732,-1.881 0,0 -1.996,0.165 -3.892,-3.224 0,0 -2.421,-2.278 -6.058,-2.204 0,0 -7.295,-1.41 -11.661,-9.571 0,0 -3.303,-5.283 -5.493,-7.279 -2.192,-1.997 -2.781,-5.666 1.812,-5.765 4.595,-0.101 9.971,-0.827 15.493,3.117 5.526,3.941 4.342,4.413 7.88,6.436 0,0 2.281,1.255 4.531,5.116 -0.003,0 0.13,0.852 1.418,0.14"
   id="path75"
   inkscape:connector-curvature="0" />
	<path
   clip-path="url(#SVGID_6_)"
   d="m 99.684,84.144 c 0,0 -1.895,-7.87 -6.451,-3.227 0,0 0.979,-0.34 1.16,0.051 0,0 -1.687,4.118 1.74,4.836 3.424,0.718 2.391,-2.685 2.391,-2.685 0,0 -0.055,-0.408 1.16,1.025"
   id="path77"
   inkscape:connector-curvature="0"
   style="fill:#ffffff" />
	<path
   clip-path="url(#SVGID_6_)"
   d="m 110.639,83.256 c 0,0 1.148,1.408 0.316,2.353 0,0 2.654,-0.254 3.022,1.05 0,0 0.099,-2.096 1.067,-2.747 0,0 0.09,-1.472 -0.823,-1.14 l -1.175,-0.883 c 10e-4,0 -2.269,-1.152 -2.407,1.367"
   id="path79"
   inkscape:connector-curvature="0"
   style="fill:#ffffff" />
	<path
   clip-path="url(#SVGID_6_)"
   d="m 114.215,81.309 c 0,0 3.306,-7.523 5.283,-8.519"
   id="path81"
   inkscape:connector-curvature="0"
   style="fill:none;stroke:#000000;stroke-width:0.396;stroke-linecap:round" />
	<path
   clip-path="url(#SVGID_6_)"
   d="m 115.415,81.674 c 0,0 4.552,-5.412 6.013,-5.242"
   id="path83"
   inkscape:connector-curvature="0"
   style="fill:none;stroke:#000000;stroke-width:0.396;stroke-linecap:round" />
	<path
   clip-path="url(#SVGID_6_)"
   d="m 116.559,84.436 c 0,0 4.993,-1.403 7.707,-0.52"
   id="path85"
   inkscape:connector-curvature="0"
   style="fill:none;stroke:#000000;stroke-width:0.396;stroke-linecap:round" />
	<path
   clip-path="url(#SVGID_6_)"
   d="m 114.008,88.322 c 0,0 2.101,3.465 -2.444,6.059"
   id="path87"
   inkscape:connector-curvature="0"
   style="fill:none;stroke:#ffffff;stroke-width:0.59500003;stroke-linecap:round" />
	<path
   clip-path="url(#SVGID_6_)"
   d="m 114.645,91.1 c 0,0 0.23,1.044 1.533,0.889"
   id="path89"
   inkscape:connector-curvature="0"
   style="fill:none;stroke:#ffffff;stroke-width:0.59500003;stroke-linecap:round" />
	<path
   clip-path="url(#SVGID_6_)"
   clip-rule="evenodd"
   d="m 170.86,66.733 c -2.842,-1.643 -4.018,2.511 -6.07,4.015 -0.516,0.664 -0.59,1.859 -1.914,1.554 -0.109,-2.651 -0.814,-6.106 -3.949,-6.079 -0.367,0.967 0.443,1.6 0.527,2.475 0.191,1.951 -0.762,4.034 -0.674,6.39 0.096,2.513 3.773,5.406 1.057,7.63 -0.984,-0.261 -2.141,0.498 -2.951,0.978 -0.576,2.371 -2.021,3.906 -3.936,5.491 -0.729,0.6 -1.816,0.868 -2.416,1.62 -0.555,0.687 -0.723,1.569 -1.195,2.082 -1.365,1.483 -5.904,1.489 -4.557,4.411 -1.82,0.786 -3.279,3.272 -5.141,4.042 -0.779,0.324 -1.324,-0.084 -1.875,0.432 -0.9,0.848 0.016,2.344 -1.236,3.205 -0.277,0.555 -1.69,-0.244 -2.004,0.27 -0.383,0.598 -0.34,1.712 -0.744,2.287 -0.906,-0.09 -0.826,-1.432 -1.57,-1.217 -1.051,0.08 -1.171,1.276 -1.941,1.69 -1.882,-0.216 -3.326,0.288 -5.024,-0.172 -0.724,1.183 -1.947,1.769 -3.317,2.176 l 8.852,16.044 c 0.287,-0.115 0.578,-0.221 0.836,-0.357 1.435,-0.762 2.31,-2.043 3.645,-2.992 1.07,-0.766 2.446,-1.135 3.602,-1.87 1.791,-1.144 3.672,-2.616 5.911,-3.791 3.402,-1.784 5.799,-3.55 7.113,-7.703 0.93,-0.778 2.385,-0.93 2.592,-2.583 2.934,-1.186 3.57,-4.434 5.322,-6.836 1.068,-1.467 3.061,-2.609 2.648,-4.693 1.021,-1.039 1.391,-2.349 2.635,-3.705 1.383,-1.504 4.102,-2.069 2.463,-4.573 4.523,-4.003 9.436,-7.539 12.395,-13.419 -0.459,-0.738 -1.889,0.825 -2.979,0.651 0.107,-1.155 1.383,-2.623 1.443,-3.838 -1.873,-1.923 -3.779,1.424 -4.686,1.74 0.764,-1.636 1.902,-2.075 2.029,-4.291 -4.482,-1.919 -3.783,3.507 -5.902,4.315 -0.003,-10e-4 2.448,-4.545 1.011,-5.379"
   id="path91"
   inkscape:connector-curvature="0"
   style="fill-rule:evenodd" />
	<path
   clip-path="url(#SVGID_6_)"
   d="m 78.575,111.754 c 1.376,-1.627 3.576,0.157 4.509,-0.346 1.161,-0.627 2.051,-0.809 6.174,-3.388 0.24,-2.292 0.746,-4.354 2.225,-5.581 -0.021,-0.083 -0.031,-0.161 -0.038,-0.238 4.218,0.594 8.406,1.133 12.784,0.329 2.102,-0.385 4.127,-0.97 6.1,-1.69 0.439,1.371 1.02,2.885 1.773,3.52 1.078,0.908 3.881,0.918 5.727,1.363 1.004,0.242 2.015,0.402 2.909,0.625 0.982,0.246 1.802,0.633 2.613,0.861 1.894,0.536 3.208,0.961 5.013,1.737 0.499,0.215 1.016,0.579 1.549,0.836 0.562,0.271 1.262,0.382 1.64,0.616 0.247,0.158 0.438,0.609 0.811,0.893 1.294,0.986 2.669,1.967 3.572,3.504 -0.67,0.971 -1.106,2.16 -1.164,3.563 -0.056,1.31 -0.088,2.621 -0.127,3.933 -1.558,3.42 -2.319,7.245 -2.638,11.11 -0.647,0.528 -1.15,1.183 -1.508,1.91 -0.004,-0.003 -0.006,-0.009 -0.01,-0.013 l -0.211,0.018 c 0.021,0.143 0.02,0.273 0.035,0.414 -0.611,1.51 -0.652,3.263 -0.154,4.828 -0.068,0.451 -0.142,0.904 -0.223,1.361 -0.244,1.385 -0.816,2.955 -0.746,4.086 0.055,0.867 0.52,1.822 0.631,2.711 0.539,4.246 0.295,8.695 -0.084,12.732 -0.496,0.494 -0.97,1.009 -1.25,1.689 0.184,1.248 0.331,2.428 0.154,3.412 -0.141,0.33 -0.264,0.67 -0.361,1.025 -0.027,0.047 -0.047,0.098 -0.076,0.145 0.015,0.002 0.023,0.002 0.039,0.004 -0.156,0.613 -0.271,1.246 -0.295,1.904 -0.074,1.828 1.252,2.146 1.543,3.756 -0.33,0.154 0.072,1.736 -0.027,2.088 0.229,-0.066 0.029,-0.098 0.216,-0.197 0.259,2.158 1.558,5.945 2.094,7.859 1.279,2.986 1.627,9.402 1.542,8.295 -0.23,-3.01 1.641,11.094 1.949,13.936 0.14,1.311 1.838,2.646 1.787,4.125 -37.385,-26.855 -41.473,3.502 -58.998,4.881 -0.06,-2.6 1.188,-5.334 1.003,-8.092 -0.007,-0.006 -0.015,-0.008 -0.022,-0.012 -0.021,-3.516 0.618,-4.736 0.563,-3.338 0.084,0.004 0.165,0.01 0.262,-0.002 -0.017,-0.107 -0.01,-0.197 0.006,-0.277 l 0.143,-2.238 c 1.001,-2.805 0.507,-2.775 0.587,-8.775 l 0.309,-2.645 c 1.101,-1.98 1.155,-2.107 1.645,-4.84 1.03,-0.992 0.382,-4.018 0.537,-5.451 0,0 -1.22,-8.525 -1.033,-8.9 0.188,-0.373 -0.633,-0.742 -0.5,-1.832 0.132,-1.09 -0.291,-1.922 -0.495,-4.57 -0.203,-2.648 -1.314,-4.939 -0.878,-8.644 0.436,-3.705 -0.169,-5.961 -1.253,-10.703 -1.083,-4.739 -3.118,-11.567 -2.793,-12.961 0.325,-1.392 -1.773,-2.73 -2.136,-3.104 0,0 -2.132,-2.327 -2.19,-3.078 -0.057,-0.752 -0.631,-0.048 -1.575,-0.953"
   id="path93"
   inkscape:connector-curvature="0" />
</g>
<g
   id="g95"
   transform="matrix(5,0,0,5,-120.47771,-90.015)">
	<defs
   id="defs97">
		<rect
   id="SVGID_7_"
   x="98.461998"
   y="103.686"
   width="13.032"
   height="53.004002" />
	</defs>
	<clipPath
   id="SVGID_8_">
		<use
   xlink:href="#SVGID_7_"
   overflow="visible"
   id="use101"
   style="overflow:visible"
   x="0"
   y="0"
   width="281.62"
   height="363.24399" />
	</clipPath>
	<path
   clip-path="url(#SVGID_8_)"
   d="m 111.223,146.85 c 0.155,2.02 0.452,4.223 0.123,5.604 -0.359,1.486 -2.26,2.885 -2.539,4.236 -1.846,-1.381 -3.338,-3.158 -5.711,-3.924 -0.451,-8.392 -0.72,-17.565 -1.39,-26.3 -0.423,-5.53 -0.872,-11.378 -2.394,-16.044 0.115,-0.662 0.573,-1.029 0.719,-1.641 -0.135,-1.09 -1.316,-1.152 -1.531,-2.121 -0.23,-0.992 0.619,-2.605 1.583,-2.87 2.142,-0.599 4.002,1.496 2.899,3.28 -0.114,0.189 -0.793,0.676 -0.775,0.904 0.023,0.306 1.646,1.293 1.814,1.664 0.621,1.256 0.777,3.291 1.248,5.096 2.518,9.821 5.044,20.228 5.954,32.116"
   id="path103"
   inkscape:connector-curvature="0"
   style="fill:#ffffff" />
</g>
<g
   id="g105"
   transform="matrix(5,0,0,5,-120.47771,-90.015)">
	<defs
   id="defs107">
		<rect
   id="SVGID_9_"
   width="281.62"
   height="363.24399"
   x="0"
   y="0" />
	</defs>
	<clipPath
   id="SVGID_10_">
		<use
   xlink:href="#SVGID_9_"
   overflow="visible"
   id="use111"
   style="overflow:visible"
   x="0"
   y="0"
   width="281.62"
   height="363.24399" />
	</clipPath>
	<path
   clip-path="url(#SVGID_10_)"
   clip-rule="evenodd"
   d="m 38.073,64.233 c 2.943,-1.45 3.416,2.85 5.364,4.489 0.471,0.697 0.464,1.894 1.805,1.679 0.288,-2.638 1.223,-6.038 4.347,-5.802 0.302,0.989 -0.549,1.567 -0.691,2.434 -0.32,1.935 0.49,4.076 0.246,6.422 -0.265,2.5 -5.4,5.371 -2.838,7.772 1.001,-0.194 2.103,0.641 2.88,1.173 0.417,2.404 1.602,3.186 3.406,4.895 0.686,0.647 1.752,0.988 2.302,1.778 0.508,0.723 0.618,1.614 1.054,2.157 1.263,1.572 5.79,1.879 4.251,4.706 1.763,0.906 3.053,3.485 4.858,4.377 0.756,0.375 1.327,0.004 1.842,0.557 0.843,0.904 -0.172,2.336 1.019,3.279 0.241,0.572 1.704,-0.129 1.983,0.402 0.342,0.623 0.223,1.73 0.588,2.333 0.911,-0.028 0.922,-1.373 1.649,-1.108 1.044,0.15 1.084,1.352 1.824,1.815 1.892,-0.088 3.84,3.478 5.565,3.132 0.642,1.227 1.9,2.318 3.241,2.816 l -10.522,12.025 c -0.277,-0.133 -0.561,-0.26 -0.809,-0.412 -1.381,-0.856 -2.168,-2.192 -3.437,-3.229 -1.016,-0.835 -2.365,-1.295 -3.468,-2.106 -1.71,-1.26 -3.49,-2.856 -5.644,-4.178 -3.274,-2.008 -5.55,-3.931 -6.582,-8.162 -0.875,-0.84 -2.318,-1.088 -2.414,-2.75 -2.848,-1.379 -3.266,-4.662 -4.855,-7.177 -0.964,-1.534 -2.875,-2.81 -2.327,-4.858 -0.949,-1.107 -1.229,-2.438 -2.38,-3.874 -1.28,-1.593 -3.801,-1.491 -1.998,-3.881 -4.246,-4.296 -7.216,-8.461 -9.774,-14.526 0.505,-0.705 2.897,1.998 3.996,1.898 -0.03,-1.16 -2.272,-3.759 -2.251,-4.975 1.997,-1.794 3.547,3.238 4.429,3.613 -0.652,-1.683 -1.629,-3.761 -1.608,-5.98 4.6,-1.615 2.818,3.696 4.877,4.643 0,0 -1.418,-4.641 0.072,-5.377"
   id="path113"
   inkscape:connector-curvature="0"
   style="fill-rule:evenodd" />
	<path
   clip-path="url(#SVGID_10_)"
   d="m 78.96,207.402 c -0.771,1.211 -0.443,9.25 -0.553,11.563 -0.111,2.313 0.26,14.666 -0.886,18.498 -1.146,3.832 -1.146,3.832 -1.037,5.264 0.11,1.43 -0.066,2.885 -0.838,7.838 -0.773,4.955 -0.97,2.379 -0.772,4.955 0.197,2.576 -0.598,10.99 -0.818,11.871 -0.221,0.879 -1.792,12.307 -1.792,12.307 l 18.335,-1.93 18.201,-78.83 c 0,0 7.762,12.494 10.121,15.121 2.362,2.627 3.848,5.105 4.855,6.971 1.007,1.867 3.764,4.031 5.003,6.096 1.237,2.064 1.534,3.123 2.954,4.742 1.421,1.619 4.607,6.559 5.316,7.367 0.709,0.808 1.058,2.512 1.782,3.535 0.728,1.023 3.998,4.23 4.675,4.609 0.676,0.379 2.029,1.139 2.74,1.949 0.709,0.811 -0.264,-0.629 1.42,1.619 1.684,2.246 3.385,4.707 4.605,6.559 1.223,1.85 0.926,3.6 1.602,3.98 0.678,0.379 1.865,4.607 1.865,4.607 0,0 1.85,1.588 2.494,1.537 0.645,-0.049 15.279,-6.355 15.279,-6.355 l -41.047,-71.51"
   id="path115"
   inkscape:connector-curvature="0" />
	<polygon
   clip-path="url(#SVGID_10_)"
   points="86.67,276.387 76.234,277.361 75.315,285.529 85.27,284.402 "
   id="polygon117" />
	<polygon
   clip-path="url(#SVGID_10_)"
   points="170.678,259.572 160.297,263.389 165.667,271.598 173.909,266.43 "
   id="polygon119" />
	<path
   clip-path="url(#SVGID_10_)"
   d="m 87.277,290.488 c -0.038,0.664 -2.343,1.072 -5.149,0.912 -2.806,-0.16 -5.049,-0.83 -5.012,-1.494 0.038,-0.664 2.344,-1.072 5.15,-0.912 2.806,0.16 5.049,0.83 5.011,1.494"
   id="path121"
   inkscape:connector-curvature="0" />
	<path
   clip-path="url(#SVGID_10_)"
   d="m 83.273,293.02 c -0.426,0 -0.89,-0.012 -1.377,-0.035 -4.464,-0.215 -4.753,-1.264 -4.765,-1.322 l 0.016,-0.002 0.076,-1.326 c 0.425,0.414 1.614,0.984 4.928,1.08 0.467,0.014 0.891,0.02 1.275,0.02 2.461,0 3.343,-0.262 3.698,-0.547 l -0.077,1.34 c -0.002,-0.001 -0.254,0.792 -3.774,0.792"
   id="path123"
   inkscape:connector-curvature="0"
   style="fill:#ffffff" />
	<path
   clip-path="url(#SVGID_10_)"
   d="m 77.339,290.594 c 0.592,0.414 1.905,0.867 4.809,0.951 0.455,0.012 0.885,0.02 1.278,0.02 2.065,0 3.053,-0.178 3.554,-0.436 l -0.06,1.053 c -0.05,0.084 -0.528,0.707 -3.647,0.707 -0.424,0 -0.885,-0.012 -1.371,-0.035 -3.88,-0.186 -4.537,-1.021 -4.629,-1.186 l 0.004,-0.002 0.062,-1.072 m -0.222,-0.688 -0.1,1.746 c -0.003,-0.01 -0.006,-0.016 -0.009,-0.016 -0.049,0 0.033,1.244 4.882,1.477 0.509,0.025 0.968,0.035 1.383,0.035 3.787,0 3.905,-0.916 3.905,-0.916 l 0.105,-1.838 c -0.126,0.314 -0.121,0.908 -3.857,0.908 -0.383,0 -0.805,-0.006 -1.271,-0.02 -5.009,-0.143 -5.038,-1.376 -5.038,-1.376"
   id="path125"
   inkscape:connector-curvature="0" />
	<path
   clip-path="url(#SVGID_10_)"
   d="m 87.257,290.393 c 0,0 2.073,-3.012 0.894,-6.756 -1.18,-3.744 -2.946,-1.689 -5.032,-0.668 -2.086,1.021 -2.037,3.432 -5.57,0.949 -3.534,-2.484 -0.163,-3.709 -0.163,-3.709 0,0 -4.537,-0.281 -8.962,1.746 -1.805,0.826 -5.973,3.25 -8.881,3.42 -5.468,0.32 -7.927,1.193 -6.014,3.205 1.913,2.01 5.168,3.859 9.359,3.719 0,0 3.015,0.188 4.417,-0.127 1.402,-0.316 6.945,-2.1 9.398,-1.76"
   id="path127"
   inkscape:connector-curvature="0" />
	<path
   clip-path="url(#SVGID_10_)"
   d="m 64.922,283.73 c 0,0 0.65,0.729 0.456,2.398"
   id="path129"
   inkscape:connector-curvature="0"
   style="fill:none;stroke:#ffffff;stroke-width:0.39500001" />
	<path
   clip-path="url(#SVGID_10_)"
   d="m 66.96,282.66 c 0,0 0.65,0.729 0.456,2.398"
   id="path131"
   inkscape:connector-curvature="0"
   style="fill:none;stroke:#ffffff;stroke-width:0.39500001" />
	<path
   clip-path="url(#SVGID_10_)"
   d="m 69.793,281.537 c 0,0 0.65,0.73 0.456,2.4"
   id="path133"
   inkscape:connector-curvature="0"
   style="fill:none;stroke:#ffffff;stroke-width:0.39500001" />
	<path
   clip-path="url(#SVGID_10_)"
   d="m 164.918,275.98 c 0.273,0.605 2.572,0.162 5.135,-0.99 2.563,-1.154 4.418,-2.582 4.145,-3.189 -0.273,-0.605 -2.57,-0.162 -5.135,0.992 -2.563,1.152 -4.418,2.58 -4.145,3.187"
   id="path135"
   inkscape:connector-curvature="0" />
	<path
   clip-path="url(#SVGID_10_)"
   d="m 166.458,277.686 c -0.58,0 -0.709,-0.178 -0.711,-0.18 l -0.545,-1.213 c 0.109,0.037 0.25,0.061 0.434,0.061 0.793,0 2.232,-0.439 4.4,-1.344 3.063,-1.275 3.967,-2.234 4.217,-2.771 l 0.545,1.211 0.014,-0.004 c 0.012,0.059 0.121,1.141 -3.977,2.939 -2.448,1.076 -3.731,1.301 -4.377,1.301"
   id="path137"
   inkscape:connector-curvature="0"
   style="fill:#ffffff" />
	<path
   clip-path="url(#SVGID_10_)"
   d="m 174.237,272.523 0.441,0.979 0.004,-0.002 c -0.025,0.188 -0.34,1.203 -3.898,2.766 -2.428,1.066 -3.693,1.289 -4.326,1.289 -0.412,0 -0.563,-0.092 -0.6,-0.119 l -0.432,-0.963 c 0.063,0.008 0.133,0.012 0.207,0.012 0.813,0 2.268,-0.443 4.453,-1.354 2.68,-1.117 3.745,-2.01 4.151,-2.608 m -0.039,-0.722 c 0,0 0.414,1.162 -4.211,3.088 -2.51,1.047 -3.727,1.334 -4.354,1.334 -0.527,0 -0.637,-0.203 -0.754,-0.328 l 0.756,1.68 c 0,0 0.131,0.242 0.822,0.242 0.715,0 2.033,-0.258 4.43,-1.313 4.414,-1.938 4.082,-3.125 4.033,-3.125 -0.004,0 -0.006,0.006 -0.004,0.016 l -0.718,-1.594 z"
   id="path139"
   inkscape:connector-curvature="0" />
	<path
   clip-path="url(#SVGID_10_)"
   d="m 164.903,275.883 c 0,0 -3.014,-2.07 -3.252,-5.988 -0.236,-3.918 2.146,-2.633 4.461,-2.424 2.314,0.207 3.129,2.477 5.539,-1.107 2.412,-3.584 -1.174,-3.521 -1.174,-3.521 0,0 4.135,-1.887 8.994,-1.576 1.98,0.127 6.74,0.898 9.516,0.018 5.221,-1.656 7.83,-1.721 6.762,0.842 -1.066,2.561 -3.443,5.453 -7.406,6.82 0,0 -2.748,1.256 -4.172,1.463 -1.422,0.205 -7.236,0.523 -9.406,1.717"
   id="path141"
   inkscape:connector-curvature="0" />
	<path
   clip-path="url(#SVGID_10_)"
   d="m 183.375,261.672 c 0,0 -0.346,0.912 0.434,2.402"
   id="path143"
   inkscape:connector-curvature="0"
   style="fill:none;stroke:#ffffff;stroke-width:0.39500001" />
	<path
   clip-path="url(#SVGID_10_)"
   d="m 181.09,261.4 c 0,0 -0.348,0.914 0.432,2.404"
   id="path145"
   inkscape:connector-curvature="0"
   style="fill:none;stroke:#ffffff;stroke-width:0.39500001" />
	<path
   clip-path="url(#SVGID_10_)"
   d="m 178.043,261.367 c 0,0 -0.348,0.912 0.432,2.402"
   id="path147"
   inkscape:connector-curvature="0"
   style="fill:none;stroke:#ffffff;stroke-width:0.39500001" />
	<path
   clip-path="url(#SVGID_10_)"
   d="M 155.944,85.998 C 123.469,50.472 48.729,49.279 29.042,70.79 c -28.696,31.355 81.913,10.42 96.834,-48.076 0,0 21.407,14.133 25.366,31.972"
   id="path149"
   inkscape:connector-curvature="0"
   style="fill:none;stroke:#ffffff;stroke-width:0.43099999" />
	<path
   clip-path="url(#SVGID_10_)"
   d="m 129.443,174.988 c 18.229,-11.846 34.428,-27.125 42.264,-42.255 5.715,-11.039 1.355,-24.672 -8.734,-38.258"
   id="path151"
   inkscape:connector-curvature="0"
   style="fill:none;stroke:#ffffff;stroke-width:0.43099999" />
	<path
   clip-path="url(#SVGID_10_)"
   d="m 162.905,242.721 c 21.824,-13.547 39.074,-28.484 21.467,-37.744 -29.029,-15.27 -150.014,-55.234 -136.348,-20.648 4.495,11.375 17.031,14.285 32.615,11.557"
   id="path153"
   inkscape:connector-curvature="0"
   style="fill:none;stroke:#ffffff;stroke-width:0.43099999" />
	<path
   clip-path="url(#SVGID_10_)"
   d="m 110.021,289.164 c 1.651,-4.02 -2.755,-14.613 12.896,-23.756 6.423,-3.754 15.607,-8.602 25.178,-13.988"
   id="path155"
   inkscape:connector-curvature="0"
   style="fill:none;stroke:#ffffff;stroke-width:0.43099999" />
	<path
   clip-path="url(#SVGID_10_)"
   d="M 156.711,84.105 C 123.101,50.345 52.669,52.345 33.749,73.021 c -28.696,31.354 82.81,11.415 96.835,-48.077 0,0 19.42,11.186 21.647,29.861"
   id="path157"
   inkscape:connector-curvature="0"
   style="fill:none;stroke:#ffffff;stroke-width:0.43099999" />
	<path
   clip-path="url(#SVGID_10_)"
   d="m 130.647,179.436 c 19.638,-12.117 37.433,-28.378 45.767,-44.472 6.35,-12.264 0.318,-27.563 -12.244,-42.606"
   id="path159"
   inkscape:connector-curvature="0"
   style="fill:none;stroke:#ffffff;stroke-width:0.43099999" />
	<path
   clip-path="url(#SVGID_10_)"
   d="m 165.012,246.547 c 23.01,-13.955 42.367,-29.715 24.066,-39.34 -29.029,-15.268 -150.013,-55.234 -136.347,-20.646 4.025,10.188 14.5,13.584 27.839,12.221"
   id="path161"
   inkscape:connector-curvature="0"
   style="fill:none;stroke:#ffffff;stroke-width:0.43099999" />
	<path
   clip-path="url(#SVGID_10_)"
   d="m 112.463,289.021 c 0.143,-5.529 -0.12,-12.455 15.162,-21.385 5.92,-3.457 14.186,-7.846 22.938,-12.729"
   id="path163"
   inkscape:connector-curvature="0"
   style="fill:none;stroke:#ffffff;stroke-width:0.43099999" />
	<path
   clip-path="url(#SVGID_10_)"
   d="M 156.551,84.591 C 122.347,52.275 55.163,56.646 36.836,76.671 c -28.695,31.354 81.296,13.152 98.955,-51.452 0,0 17.946,13.926 17.516,28.426"
   id="path165"
   inkscape:connector-curvature="0"
   style="fill:none;stroke:#ffffff;stroke-width:0.43099999" />
	<path
   clip-path="url(#SVGID_10_)"
   d="m 132.174,184.039 c 20.252,-12.211 38.774,-28.906 47.329,-45.425 6.842,-13.213 -0.666,-30.002 -15.244,-46.116"
   id="path167"
   inkscape:connector-curvature="0"
   style="fill:none;stroke:#ffffff;stroke-width:0.43099999" />
	<path
   clip-path="url(#SVGID_10_)"
   d="m 167.438,250.596 c 23.297,-14.053 43.203,-30.021 24.729,-39.738 C 163.136,195.59 42.153,155.624 55.819,190.212 c 3.636,9.201 12.534,12.863 24.051,12.482"
   id="path169"
   inkscape:connector-curvature="0"
   style="fill:none;stroke:#ffffff;stroke-width:0.43099999" />
	<path
   clip-path="url(#SVGID_10_)"
   d="m 114.76,289.021 c 2.8,-7.969 1.963,-9.559 15.953,-17.732 5.787,-3.381 13.815,-7.65 22.348,-12.402"
   id="path171"
   inkscape:connector-curvature="0"
   style="fill:none;stroke:#ffffff;stroke-width:0.43099999" />
</g>
<g
   id="g173"
   transform="matrix(5,0,0,5,-120.47771,-90.015)">
	<defs
   id="defs175">
		
			<rect
   id="SVGID_11_"
   x="160.214"
   y="106.452"
   transform="matrix(-0.254,-0.9672,0.9672,-0.254,110.6476,317.0619)"
   width="34.775002"
   height="18.813999" />
	</defs>
	<clipPath
   id="SVGID_12_">
		<use
   xlink:href="#SVGID_11_"
   overflow="visible"
   id="use179"
   style="overflow:visible"
   x="0"
   y="0"
   width="281.62"
   height="363.24399" />
	</clipPath>
	<polygon
   clip-path="url(#SVGID_12_)"
   points="175.149,115.371 177.975,115.533 175.594,117.061 176.313,119.799 174.122,118.008 171.741,119.537 172.77,116.9 170.579,115.108 173.403,115.27 174.432,112.633 "
   id="polygon181"
   style="fill:#ffffff" />
	<polygon
   clip-path="url(#SVGID_12_)"
   points="183.6,123.079 186.196,124.211 183.43,124.821 183.153,127.64 181.719,125.198 178.954,125.806 180.833,123.688 179.397,121.245 181.993,122.377 183.874,120.258 "
   id="polygon183"
   style="fill:#ffffff" />
	<polygon
   clip-path="url(#SVGID_12_)"
   points="176.979,102.622 180.93,101.807 178.211,104.788 180.208,108.293 176.534,106.629 173.815,109.611 174.262,105.602 170.586,103.938 174.538,103.124 174.983,99.116 "
   id="polygon185"
   style="fill:#ffffff" />
	<polygon
   clip-path="url(#SVGID_12_)"
   points="176.424,127.781 177.946,127.467 176.899,128.615 177.665,129.965 176.25,129.326 175.204,130.473 175.375,128.93 173.959,128.289 175.483,127.975 175.655,126.43 "
   id="polygon187"
   style="fill:#ffffff" />
	
		<rect
   x="169.907"
   y="100.14"
   transform="matrix(0.6378,0.7702,-0.7702,0.6378,139.7298,-95.1102)"
   clip-path="url(#SVGID_12_)"
   width="2.1530001"
   height="1.724"
   id="rect189"
   style="fill:#ffffff" />
	
		<rect
   x="179.39301"
   y="111.726"
   transform="matrix(0.3737,0.9275,-0.9275,0.3737,217.4498,-96.8824)"
   clip-path="url(#SVGID_12_)"
   width="2.1530001"
   height="1.723"
   id="rect191"
   style="fill:#ffffff" />
	
		<rect
   x="184.985"
   y="114.792"
   transform="matrix(-0.0834,0.9965,-0.9965,-0.0834,316.8341,-60.1118)"
   clip-path="url(#SVGID_12_)"
   width="2.154"
   height="1.723"
   id="rect193"
   style="fill:#ffffff" />
	
		<rect
   x="171.174"
   y="123.445"
   transform="matrix(-0.0847,0.9964,-0.9964,-0.0847,310.2548,-36.7696)"
   clip-path="url(#SVGID_12_)"
   width="1.684"
   height="1.347"
   id="rect195"
   style="fill:#ffffff" />
	
		<rect
   x="165.487"
   y="106.45"
   transform="matrix(0.3134,0.9496,-0.9496,0.3134,215.9189,-84.4009)"
   clip-path="url(#SVGID_12_)"
   width="1.682"
   height="1.346"
   id="rect197"
   style="fill:#ffffff" />
	<polygon
   clip-path="url(#SVGID_12_)"
   points="172.018,111.41 170.6,111.297 170.073,109.699 171.491,109.811 "
   id="polygon199"
   style="fill:#ffffff" />
	
		<rect
   x="181.23199"
   y="130.957"
   transform="matrix(-0.0302,0.9995,-0.9995,-0.0302,319.1367,-46.3897)"
   clip-path="url(#SVGID_12_)"
   width="1.683"
   height="1.346"
   id="rect201"
   style="fill:#ffffff" />
</g>
<g
   id="g203"
   transform="matrix(5,0,0,5,-120.47771,-90.015)">
	<defs
   id="defs205">
		
			<rect
   id="SVGID_13_"
   x="161.30299"
   y="127.325"
   transform="matrix(-0.7916,-0.6111,0.6111,-0.7916,217.4007,363.5857)"
   width="18.813999"
   height="34.779999" />
	</defs>
	<clipPath
   id="SVGID_14_">
		<use
   xlink:href="#SVGID_13_"
   overflow="visible"
   id="use209"
   style="overflow:visible"
   x="0"
   y="0"
   width="281.62"
   height="363.24399" />
	</clipPath>
	<polygon
   clip-path="url(#SVGID_14_)"
   points="169.598,142.476 171.196,144.813 168.532,143.86 166.801,146.102 166.883,143.272 164.219,142.319 166.934,141.524 167.016,138.694 168.612,141.032 171.329,140.237 "
   id="polygon211"
   style="fill:#ffffff" />
	<polygon
   clip-path="url(#SVGID_14_)"
   points="168.651,153.874 169.34,156.624 167.168,154.801 164.766,156.305 165.827,153.678 163.655,151.86 166.479,152.053 167.54,149.426 168.227,152.174 171.053,152.372 "
   id="polygon213"
   style="fill:#ffffff" />
	<polygon
   clip-path="url(#SVGID_14_)"
   points="180.815,136.141 183.872,138.774 179.852,138.442 178.293,142.163 177.368,138.235 173.346,137.903 176.795,135.809 175.872,131.882 178.926,134.514 182.374,132.421 "
   id="polygon215"
   style="fill:#ffffff" />
	<polygon
   clip-path="url(#SVGID_14_)"
   points="160.547,151.059 161.725,152.075 160.176,151.946 159.573,153.377 159.219,151.868 157.67,151.739 158.999,150.93 158.641,149.418 159.819,150.432 161.147,149.627 "
   id="polygon217"
   style="fill:#ffffff" />
	
		<rect
   x="177.362"
   y="129.543"
   transform="matrix(-0.2205,0.9754,-0.9754,-0.2205,344.9767,-14.8892)"
   clip-path="url(#SVGID_14_)"
   width="2.1530001"
   height="1.724"
   id="rect219"
   style="fill:#ffffff" />
	
		<rect
   x="173.97501"
   y="144.129"
   transform="matrix(-0.5061,0.8625,-0.8625,-0.5061,388.6942,67.3846)"
   clip-path="url(#SVGID_14_)"
   width="2.154"
   height="1.724"
   id="rect221"
   style="fill:#ffffff" />
	
		<rect
   x="174.96001"
   y="150.42999"
   transform="matrix(-0.8407,0.5414,-0.5414,-0.8407,405.953,183.1736)"
   clip-path="url(#SVGID_14_)"
   width="2.154"
   height="1.722"
   id="rect223"
   style="fill:#ffffff" />
	
		<rect
   x="159.91701"
   y="144.66"
   transform="matrix(-0.8406,0.5416,-0.5416,-0.8406,374.6118,180.4299)"
   clip-path="url(#SVGID_14_)"
   width="1.682"
   height="1.347"
   id="rect225"
   style="fill:#ffffff" />
	
		<rect
   x="169.908"
   y="129.782"
   transform="matrix(-0.5608,0.8279,-0.8279,-0.5608,374.5183,62.2539)"
   clip-path="url(#SVGID_14_)"
   width="1.682"
   height="1.346"
   id="rect227"
   style="fill:#ffffff" />
	<polygon
   clip-path="url(#SVGID_14_)"
   points="170.825,137.579 170.049,136.385 170.993,134.993 171.77,136.185 "
   id="polygon229"
   style="fill:#ffffff" />
	
		<rect
   x="160.105"
   y="157.21201"
   transform="matrix(-0.8096,0.5869,-0.5869,-0.8096,383.9235,191.2525)"
   clip-path="url(#SVGID_14_)"
   width="1.684"
   height="1.348"
   id="rect231"
   style="fill:#ffffff" />
</g>
<g
   id="g233"
   transform="matrix(5,0,0,5,-120.47771,-90.015)">
	<defs
   id="defs235">
		
			<rect
   id="SVGID_15_"
   x="135.68201"
   y="152.759"
   transform="matrix(-0.6012,-0.7991,0.7991,-0.6012,96.3417,388.3783)"
   width="18.813999"
   height="34.777" />
	</defs>
	<clipPath
   id="SVGID_16_">
		<use
   xlink:href="#SVGID_15_"
   overflow="visible"
   id="use239"
   style="overflow:visible"
   x="0"
   y="0"
   width="281.62"
   height="363.24399" />
	</clipPath>
	<polygon
   clip-path="url(#SVGID_16_)"
   points="144.612,167.693 145.532,170.371 143.215,168.746 140.953,170.447 141.782,167.74 139.466,166.117 142.295,166.068 143.125,163.363 144.043,166.039 146.874,165.992 "
   id="polygon241"
   style="fill:#ffffff" />
	<polygon
   clip-path="url(#SVGID_16_)"
   points="140.677,178.432 140.611,181.264 139,178.934 136.285,179.746 138.003,177.494 136.393,175.164 139.064,176.102 140.783,173.85 140.718,176.68 143.391,177.619 "
   id="polygon243"
   style="fill:#ffffff" />
	<polygon
   clip-path="url(#SVGID_16_)"
   points="157.106,164.561 159.356,167.908 155.567,166.521 153.079,169.695 153.227,165.666 149.438,164.277 153.319,163.174 153.467,159.143 155.717,162.49 159.596,161.387 "
   id="polygon245"
   style="fill:#ffffff" />
	<polygon
   clip-path="url(#SVGID_16_)"
   points="133.607,173.57 134.475,174.859 133.016,174.326 132.056,175.547 132.112,173.996 130.653,173.461 132.148,173.035 132.205,171.482 133.072,172.773 134.566,172.346 "
   id="polygon247"
   style="fill:#ffffff" />
	
		<rect
   x="155.259"
   y="157.53799"
   transform="matrix(-0.4721,0.8815,-0.8815,-0.4721,369.7754,95.3621)"
   clip-path="url(#SVGID_16_)"
   width="2.151"
   height="1.722"
   id="rect249"
   style="fill:#ffffff" />
	
		<rect
   x="148.12601"
   y="170.703"
   transform="matrix(-0.7166,0.6975,-0.6975,-0.7166,375.7857,190.4302)"
   clip-path="url(#SVGID_16_)"
   width="2.1530001"
   height="1.724"
   id="rect251"
   style="fill:#ffffff" />
	
		<rect
   x="147.40401"
   y="177.03999"
   transform="matrix(-0.9539,0.3001,-0.3001,-0.9539,343.5106,303.037)"
   clip-path="url(#SVGID_16_)"
   width="2.154"
   height="1.723"
   id="rect253"
   style="fill:#ffffff" />
	
		<rect
   x="134.487"
   y="167.431"
   transform="matrix(-0.9538,0.3004,-0.3004,-0.9538,314.9006,287.8005)"
   clip-path="url(#SVGID_16_)"
   width="1.684"
   height="1.347"
   id="rect255"
   style="fill:#ffffff" />
	
		<rect
   x="148.06599"
   y="155.735"
   transform="matrix(-0.7611,0.6486,-0.6486,-0.7611,363.6915,178.8752)"
   clip-path="url(#SVGID_16_)"
   width="1.683"
   height="1.345"
   id="rect257"
   style="fill:#ffffff" />
	<polygon
   clip-path="url(#SVGID_16_)"
   points="147.094,163.297 146.661,161.939 147.942,160.848 148.374,162.203 "
   id="polygon259"
   style="fill:#ffffff" />
	
		<rect
   x="131.342"
   y="179.584"
   transform="matrix(-0.9366,0.3505,-0.3505,-0.9366,319.1592,302.751)"
   clip-path="url(#SVGID_16_)"
   width="1.683"
   height="1.345"
   id="rect261"
   style="fill:#ffffff" />
</g>
<g
   id="g263"
   transform="matrix(5,0,0,5,-120.47771,-90.015)">
	<defs
   id="defs265">
		
			<rect
   id="SVGID_17_"
   x="45.868"
   y="187.44299"
   transform="matrix(-0.9783,-0.2074,0.2074,-0.9783,84.312,402.5403)"
   width="34.778"
   height="18.815001" />
	</defs>
	<clipPath
   id="SVGID_18_">
		<use
   xlink:href="#SVGID_17_"
   overflow="visible"
   id="use269"
   style="overflow:visible"
   x="0"
   y="0"
   width="281.62"
   height="363.24399" />
	</clipPath>
	<polygon
   clip-path="url(#SVGID_18_)"
   points="64.793,194.879 63.379,197.33 63.082,194.516 60.312,193.93 62.898,192.775 62.601,189.961 64.495,192.064 67.08,190.912 65.666,193.363 67.561,195.465 "
   id="polygon271"
   style="fill:#ffffff" />
	<polygon
   clip-path="url(#SVGID_18_)"
   points="54.111,198.967 51.933,200.779 52.631,198.033 50.235,196.52 53.063,196.336 53.759,193.59 54.81,196.221 57.636,196.037 55.458,197.848 56.507,200.479 "
   id="polygon273"
   style="fill:#ffffff" />
	<polygon
   clip-path="url(#SVGID_18_)"
   points="75.364,202.238 74.317,206.135 72.875,202.367 68.845,202.576 71.982,200.041 70.54,196.271 73.921,198.471 77.059,195.936 76.011,199.832 79.393,202.031 "
   id="polygon275"
   style="fill:#ffffff" />
	<polygon
   clip-path="url(#SVGID_18_)"
   points="53.132,190.443 52.729,191.945 52.173,190.494 50.621,190.572 51.829,189.596 51.273,188.145 52.576,188.992 53.784,188.014 53.381,189.516 54.684,190.363 "
   id="polygon277"
   style="fill:#ffffff" />
	
		<rect
   x="78.425003"
   y="196.748"
   transform="matrix(-0.9748,0.2231,-0.2231,-0.9748,201.0907,372.4967)"
   clip-path="url(#SVGID_18_)"
   width="2.1530001"
   height="1.722"
   id="rect279"
   style="fill:#ffffff" />
	
		<rect
   x="63.813999"
   y="200.021"
   transform="matrix(-0.9965,-0.0834,0.0834,-0.9965,112.7945,406.4777)"
   clip-path="url(#SVGID_18_)"
   width="2.154"
   height="1.723"
   id="rect281"
   style="fill:#ffffff" />
	
		<rect
   x="58.563"
   y="203.64101"
   transform="matrix(-0.8528,-0.5223,0.5223,-0.8528,3.6932,410.045)"
   clip-path="url(#SVGID_18_)"
   width="2.154"
   height="1.723"
   id="rect283"
   style="fill:#ffffff" />
	
		<rect
   x="57.542"
   y="187.47701"
   transform="matrix(-0.8529,-0.522,0.522,-0.8529,9.9615,379.1072)"
   clip-path="url(#SVGID_18_)"
   width="1.684"
   height="1.347"
   id="rect285"
   style="fill:#ffffff" />
	
		<rect
   x="75.281998"
   y="190.028"
   transform="matrix(-0.9893,-0.1462,0.1462,-0.9893,123.5466,390.4832)"
   clip-path="url(#SVGID_18_)"
   width="1.683"
   height="1.346"
   id="rect287"
   style="fill:#ffffff" />
	<polygon
   clip-path="url(#SVGID_18_)"
   points="69.738,193.859 70.477,192.643 72.142,192.889 71.403,194.105 "
   id="polygon289"
   style="fill:#ffffff" />
	
		<rect
   x="46.313"
   y="193.09"
   transform="matrix(-0.8801,-0.4747,0.4747,-0.8801,-3.3304,386.6864)"
   clip-path="url(#SVGID_18_)"
   width="1.683"
   height="1.348"
   id="rect291"
   style="fill:#ffffff" />
</g>
<g
   id="g293"
   transform="matrix(5,0,0,5,-120.47771,-90.015)">
	<defs
   id="defs295">
		
			<rect
   id="SVGID_19_"
   x="54.710999"
   y="159.22"
   transform="matrix(-0.1996,-0.9799,0.9799,-0.1996,-96.1437,274.6794)"
   width="18.813999"
   height="34.777" />
	</defs>
	<clipPath
   id="SVGID_20_">
		<use
   xlink:href="#SVGID_19_"
   overflow="visible"
   id="use299"
   style="overflow:visible"
   x="0"
   y="0"
   width="281.62"
   height="363.24399" />
	</clipPath>
	<polygon
   clip-path="url(#SVGID_20_)"
   points="64.742,174.188 64.422,177 63.028,174.537 60.254,175.102 62.166,173.014 60.773,170.551 63.348,171.725 65.26,169.639 64.939,172.449 67.515,173.623 "
   id="polygon301"
   style="fill:#ffffff" />
	<polygon
   clip-path="url(#SVGID_20_)"
   points="56.574,182.193 55.297,184.723 54.844,181.926 52.044,181.492 54.563,180.197 54.109,177.402 56.12,179.396 58.64,178.1 57.363,180.629 59.374,182.625 "
   id="polygon303"
   style="fill:#ffffff" />
	<polygon
   clip-path="url(#SVGID_20_)"
   points="77.369,176.727 77.961,180.717 75.137,177.838 71.525,179.633 73.392,176.059 70.567,173.178 74.545,173.848 76.412,170.271 77.004,174.262 80.981,174.932 "
   id="polygon305"
   style="fill:#ffffff" />
	<polygon
   clip-path="url(#SVGID_20_)"
   points="52.279,174.764 52.508,176.303 51.42,175.193 50.028,175.883 50.747,174.508 49.659,173.396 51.192,173.654 51.911,172.277 52.139,173.814 53.671,174.072 "
   id="polygon307"
   style="fill:#ffffff" />
	
		<rect
   x="78.244003"
   y="169.97"
   transform="matrix(-0.805,0.5933,-0.5933,-0.805,244.5311,261.2799)"
   clip-path="url(#SVGID_20_)"
   width="2.1530001"
   height="1.724"
   id="rect309"
   style="fill:#ffffff" />
	
		<rect
   x="66.147003"
   y="178.793"
   transform="matrix(-0.9468,0.3219,-0.3219,-0.9468,188.7053,328.1044)"
   clip-path="url(#SVGID_20_)"
   width="2.154"
   height="1.724"
   id="rect311"
   style="fill:#ffffff" />
	
		<rect
   x="62.771999"
   y="184.205"
   transform="matrix(-0.9903,-0.1387,0.1387,-0.9903,101.4072,377.2027)"
   clip-path="url(#SVGID_20_)"
   width="2.154"
   height="1.724"
   id="rect313"
   style="fill:#ffffff" />
	
		<rect
   x="55.341"
   y="169.896"
   transform="matrix(-0.9903,-0.1392,0.1392,-0.9903,88.0705,347.2996)"
   clip-path="url(#SVGID_20_)"
   width="1.683"
   height="1.347"
   id="rect315"
   style="fill:#ffffff" />
	
		<rect
   x="72.628998"
   y="165.16901"
   transform="matrix(-0.9659,0.2589,-0.2589,-0.9659,187.37,307.0088)"
   clip-path="url(#SVGID_20_)"
   width="1.682"
   height="1.345"
   id="rect317"
   style="fill:#ffffff" />
	<polygon
   clip-path="url(#SVGID_20_)"
   points="68.872,171.283 69.064,169.873 70.689,169.436 70.497,170.846 "
   id="polygon319"
   style="fill:#ffffff" />
	
		<rect
   x="47.278"
   y="179.517"
   transform="matrix(-0.9963,-0.0859,0.0859,-0.9963,80.5875,363.8476)"
   clip-path="url(#SVGID_20_)"
   width="1.683"
   height="1.347"
   id="rect321"
   style="fill:#ffffff" />
</g>
<g
   id="g323"
   transform="matrix(5,0,0,5,-120.47771,-90.015)">
	<defs
   id="defs325">
		
			<rect
   id="SVGID_21_"
   x="133.728"
   y="184.427"
   transform="matrix(-0.9388,-0.3444,0.3444,-0.9388,226.247,427.853)"
   width="34.779999"
   height="18.816" />
	</defs>
	<clipPath
   id="SVGID_22_">
		<use
   xlink:href="#SVGID_21_"
   overflow="visible"
   id="use329"
   style="overflow:visible"
   x="0"
   y="0"
   width="281.62"
   height="363.24399" />
	</clipPath>
	<polygon
   clip-path="url(#SVGID_22_)"
   points="152.92,192.104 151.172,194.328 151.278,191.5 148.62,190.525 151.342,189.752 151.448,186.924 153.024,189.275 155.749,188.5 154,190.727 155.577,193.076 "
   id="polygon331"
   style="fill:#ffffff" />
	<polygon
   clip-path="url(#SVGID_22_)"
   points="141.764,194.631 139.351,196.115 140.433,193.496 138.275,191.658 141.101,191.877 142.18,189.26 142.846,192.014 145.67,192.232 143.258,193.715 143.922,196.471 "
   id="polygon333"
   style="fill:#ffffff" />
	<polygon
   clip-path="url(#SVGID_22_)"
   points="162.338,200.891 160.749,204.598 159.854,200.664 155.836,200.297 159.303,198.232 158.409,194.299 161.444,196.957 164.909,194.891 163.321,198.6 166.354,201.256 "
   id="polygon335"
   style="fill:#ffffff" />
	<polygon
   clip-path="url(#SVGID_22_)"
   points="142.006,186.055 141.395,187.484 141.05,185.969 139.504,185.826 140.838,185.031 140.494,183.516 141.663,184.539 142.999,183.744 142.385,185.174 143.555,186.195 "
   id="polygon337"
   style="fill:#ffffff" />
	
		<rect
   x="166.01401"
   y="196.033"
   transform="matrix(-0.9966,0.0825,-0.0825,-0.9966,349.8605,379.3291)"
   clip-path="url(#SVGID_22_)"
   width="2.154"
   height="1.723"
   id="rect339"
   style="fill:#ffffff" />
	
		<rect
   x="151.088"
   y="197.19701"
   transform="matrix(-0.9748,-0.2233,0.2233,-0.9748,256.2659,425.0909)"
   clip-path="url(#SVGID_22_)"
   width="2.152"
   height="1.723"
   id="rect341"
   style="fill:#ffffff" />
	
		<rect
   x="145.375"
   y="200.034"
   transform="matrix(-0.7698,-0.6383,0.6383,-0.7698,130.9536,449.0223)"
   clip-path="url(#SVGID_22_)"
   width="2.154"
   height="1.723"
   id="rect343"
   style="fill:#ffffff" />
	
		<rect
   x="146.69"
   y="183.85899"
   transform="matrix(-0.7696,-0.6385,0.6385,-0.7696,143.259,420.7508)"
   clip-path="url(#SVGID_22_)"
   width="1.682"
   height="1.347"
   id="rect345"
   style="fill:#ffffff" />
	
		<rect
   x="163.886"
   y="188.90401"
   transform="matrix(-0.9584,-0.2854,0.2854,-0.9584,268.492,418.2863)"
   clip-path="url(#SVGID_22_)"
   width="1.683"
   height="1.347"
   id="rect347"
   style="fill:#ffffff" />
	<polygon
   clip-path="url(#SVGID_22_)"
   points="157.959,191.797 158.862,190.697 160.475,191.178 159.573,192.277 "
   id="polygon349"
   style="fill:#ffffff" />
	
		<rect
   x="134.77699"
   y="187.82001"
   transform="matrix(-0.8033,-0.5955,0.5955,-0.8033,132.3114,420.6809)"
   clip-path="url(#SVGID_22_)"
   width="1.682"
   height="1.347"
   id="rect351"
   style="fill:#ffffff" />
</g>
<g
   id="g353"
   transform="matrix(5,0,0,5,-120.47771,-90.015)">
	<defs
   id="defs355">
		
			<rect
   id="SVGID_23_"
   x="166.033"
   y="198.211"
   transform="matrix(-0.8712,-0.4909,0.4909,-0.8712,241.2943,478.5415)"
   width="34.776001"
   height="18.813999" />
	</defs>
	<clipPath
   id="SVGID_24_">
		<use
   xlink:href="#SVGID_23_"
   overflow="visible"
   id="use359"
   style="overflow:visible"
   x="0"
   y="0"
   width="281.62"
   height="363.24399" />
	</clipPath>
	<polygon
   clip-path="url(#SVGID_24_)"
   points="185.477,206.197 183.393,208.113 183.954,205.34 181.487,203.949 184.299,203.625 184.858,200.85 186.036,203.424 188.848,203.098 186.764,205.014 187.942,207.586 "
   id="polygon361"
   style="fill:#ffffff" />
	<polygon
   clip-path="url(#SVGID_24_)"
   points="174.061,206.898 171.44,207.975 172.928,205.563 171.096,203.402 173.848,204.074 175.336,201.664 175.549,204.486 178.303,205.158 175.682,206.232 175.893,209.059 "
   id="polygon363"
   style="fill:#ffffff" />
	<polygon
   clip-path="url(#SVGID_24_)"
   points="193.358,216.385 191.192,219.789 190.942,215.762 187.038,214.754 190.79,213.275 190.542,209.248 193.108,212.359 196.862,210.879 194.696,214.283 197.262,217.393 "
   id="polygon365"
   style="fill:#ffffff" />
	<polygon
   clip-path="url(#SVGID_24_)"
   points="175.68,198.473 174.846,199.785 174.75,198.232 173.247,197.844 174.692,197.273 174.596,195.723 175.584,196.922 177.03,196.352 176.196,197.662 177.186,198.861 "
   id="polygon367"
   style="fill:#ffffff" />
	
		<rect
   x="197.61501"
   y="212.34599"
   transform="matrix(-0.9969,-0.0789,0.0789,-0.9969,379.9386,441.4311)"
   clip-path="url(#SVGID_24_)"
   width="2.1530001"
   height="1.724"
   id="rect369"
   style="fill:#ffffff" />
	
		<rect
   x="182.69501"
   y="211.093"
   transform="matrix(-0.9261,-0.3773,0.3773,-0.9261,273.9839,477.5826)"
   clip-path="url(#SVGID_24_)"
   width="2.1530001"
   height="1.723"
   id="rect371"
   style="fill:#ffffff" />
	
		<rect
   x="176.60201"
   y="212.974"
   transform="matrix(-0.6569,-0.754,0.754,-0.6569,133.1673,488.2684)"
   clip-path="url(#SVGID_24_)"
   width="2.1530001"
   height="1.722"
   id="rect373"
   style="fill:#ffffff" />
	
		<rect
   x="180.536"
   y="197.185"
   transform="matrix(-0.6567,-0.7542,0.7542,-0.6567,151.2711,464.578)"
   clip-path="url(#SVGID_24_)"
   width="1.683"
   height="1.347"
   id="rect375"
   style="fill:#ffffff" />
	
		<rect
   x="196.69701"
   y="204.933"
   transform="matrix(-0.8997,-0.4365,0.4365,-0.8997,285.5177,476.8153)"
   clip-path="url(#SVGID_24_)"
   width="1.682"
   height="1.345"
   id="rect377"
   style="fill:#ffffff" />
	<polygon
   clip-path="url(#SVGID_24_)"
   points="190.5,206.707 191.569,205.768 193.084,206.5 192.014,207.439 "
   id="polygon379"
   style="fill:#ffffff" />
	
		<rect
   x="168.14101"
   y="199.17599"
   transform="matrix(-0.6972,-0.7169,0.7169,-0.6972,143.5222,460.3239)"
   clip-path="url(#SVGID_24_)"
   width="1.684"
   height="1.347"
   id="rect381"
   style="fill:#ffffff" />
</g>
<g
   id="g383"
   transform="matrix(5,0,0,5,-120.47771,-90.015)">
	<defs
   id="defs385">
		
			<rect
   id="SVGID_25_"
   x="170.998"
   y="217.795"
   transform="matrix(-0.6102,-0.7923,0.7923,-0.6102,104.1602,521.6154)"
   width="18.815001"
   height="34.773998" />
	</defs>
	<clipPath
   id="SVGID_26_">
		<use
   xlink:href="#SVGID_25_"
   overflow="visible"
   id="use389"
   style="overflow:visible"
   x="0"
   y="0"
   width="281.62"
   height="363.24399" />
	</clipPath>
	<polygon
   clip-path="url(#SVGID_26_)"
   points="179.901,232.734 180.852,235.4 178.516,233.803 176.274,235.529 177.073,232.814 174.737,231.217 177.567,231.137 178.366,228.422 179.315,231.088 182.143,231.008 "
   id="polygon391"
   style="fill:#ffffff" />
	<polygon
   clip-path="url(#SVGID_26_)"
   points="176.088,243.518 176.053,246.35 174.417,244.037 171.711,244.881 173.405,242.609 171.766,240.299 174.45,241.205 176.143,238.934 176.11,241.766 178.792,242.674 "
   id="polygon393"
   style="fill:#ffffff" />
	<polygon
   clip-path="url(#SVGID_26_)"
   points="192.358,229.461 194.645,232.783 190.842,231.439 188.389,234.641 188.493,230.609 184.688,229.264 188.555,228.117 188.659,224.084 190.946,227.408 194.811,226.258 "
   id="polygon395"
   style="fill:#ffffff" />
	<polygon
   clip-path="url(#SVGID_26_)"
   points="168.963,238.736 169.846,240.016 168.381,239.498 167.434,240.73 167.475,239.178 166.008,238.66 167.499,238.217 167.54,236.664 168.42,237.945 169.909,237.502 "
   id="polygon397"
   style="fill:#ffffff" />
	
		<rect
   x="190.439"
   y="222.446"
   transform="matrix(-0.4617,0.8871,-0.8871,-0.4617,478.0185,156.5163)"
   clip-path="url(#SVGID_26_)"
   width="2.1530001"
   height="1.724"
   id="rect399"
   style="fill:#ffffff" />
	
		<rect
   x="183.46001"
   y="235.69099"
   transform="matrix(-0.7089,0.7053,-0.7053,-0.7089,482.1947,274.0987)"
   clip-path="url(#SVGID_26_)"
   width="2.152"
   height="1.724"
   id="rect401"
   style="fill:#ffffff" />
	
		<rect
   x="182.80901"
   y="242.036"
   transform="matrix(-0.9507,0.3102,-0.3102,-0.9507,434.0528,416.7628)"
   clip-path="url(#SVGID_26_)"
   width="2.1530001"
   height="1.724"
   id="rect403"
   style="fill:#ffffff" />
	
		<rect
   x="169.783"
   y="232.578"
   transform="matrix(-0.9504,0.311,-0.311,-0.9504,405.3293,401.8725)"
   clip-path="url(#SVGID_26_)"
   width="1.683"
   height="1.348"
   id="rect405"
   style="fill:#ffffff" />
	
		<rect
   x="183.22701"
   y="220.728"
   transform="matrix(-0.752,0.6592,-0.6592,-0.752,468.4281,266.5644)"
   clip-path="url(#SVGID_26_)"
   width="1.683"
   height="1.347"
   id="rect407"
   style="fill:#ffffff" />
	<polygon
   clip-path="url(#SVGID_26_)"
   points="182.333,228.311 181.885,226.959 183.151,225.852 183.6,227.203 "
   id="polygon409"
   style="fill:#ffffff" />
	
		<rect
   x="166.77499"
   y="244.765"
   transform="matrix(-0.9321,0.3622,-0.3622,-0.9321,412.744,413.5099)"
   clip-path="url(#SVGID_26_)"
   width="1.683"
   height="1.347"
   id="rect411"
   style="fill:#ffffff" />
</g>
<g
   id="g413"
   transform="matrix(5,0,0,5,-120.47771,-90.015)">
	<defs
   id="defs415">
		
			<rect
   id="SVGID_27_"
   x="124.484"
   y="247.08099"
   transform="matrix(-0.4527,-0.8916,0.8916,-0.4527,-41.3071,503.5862)"
   width="18.813999"
   height="34.777" />
	</defs>
	<clipPath
   id="SVGID_28_">
		<use
   xlink:href="#SVGID_27_"
   overflow="visible"
   id="use419"
   style="overflow:visible"
   x="0"
   y="0"
   width="281.62"
   height="363.24399" />
	</clipPath>
	<polygon
   clip-path="url(#SVGID_28_)"
   points="133.849,261.971 134.287,264.768 132.289,262.762 129.765,264.045 131.054,261.525 129.056,259.52 131.851,259.967 133.14,257.447 133.576,260.244 136.373,260.691 "
   id="polygon421"
   style="fill:#ffffff" />
	<polygon
   clip-path="url(#SVGID_28_)"
   points="128.102,271.859 127.543,274.637 126.362,272.061 123.547,272.387 125.633,270.469 124.453,267.895 126.92,269.283 129.006,267.365 128.447,270.143 130.916,271.533 "
   id="polygon423"
   style="fill:#ffffff" />
	<polygon
   clip-path="url(#SVGID_28_)"
   points="146.698,261.064 148.329,264.754 144.84,262.729 141.836,265.418 142.686,261.477 139.196,259.449 143.209,259.037 144.059,255.094 145.69,258.783 149.702,258.373 "
   id="polygon425"
   style="fill:#ffffff" />
	<polygon
   clip-path="url(#SVGID_28_)"
   points="121.988,265.838 122.617,267.26 121.272,266.48 120.115,267.516 120.441,265.998 119.098,265.217 120.644,265.059 120.972,263.539 121.6,264.961 123.146,264.803 "
   id="polygon427"
   style="fill:#ffffff" />
	
		<rect
   x="145.936"
   y="254.00101"
   transform="matrix(-0.6187,0.7856,-0.7856,-0.6187,438.1953,297.0497)"
   clip-path="url(#SVGID_28_)"
   width="2.1530001"
   height="1.723"
   id="rect429"
   style="fill:#ffffff" />
	
		<rect
   x="136.618"
   y="265.72101"
   transform="matrix(-0.8276,0.5614,-0.5614,-0.8276,401.2987,409.8972)"
   clip-path="url(#SVGID_28_)"
   width="2.154"
   height="1.723"
   id="rect431"
   style="fill:#ffffff" />
	
		<rect
   x="134.80099"
   y="271.83499"
   transform="matrix(-0.9917,0.1287,-0.1287,-0.9917,305.7277,525.6339)"
   clip-path="url(#SVGID_28_)"
   width="2.155"
   height="1.723"
   id="rect433"
   style="fill:#ffffff" />
	
		<rect
   x="123.794"
   y="260.08401"
   transform="matrix(-0.9918,0.1276,-0.1276,-0.9918,281.527,503.4781)"
   clip-path="url(#SVGID_28_)"
   width="1.684"
   height="1.345"
   id="rect435"
   style="fill:#ffffff" />
	
		<rect
   x="139.205"
   y="250.933"
   transform="matrix(-0.862,0.507,-0.507,-0.862,388.3181,397.4829)"
   clip-path="url(#SVGID_28_)"
   width="1.684"
   height="1.346"
   id="rect437"
   style="fill:#ffffff" />
	<polygon
   clip-path="url(#SVGID_28_)"
   points="137.059,258.074 136.869,256.664 138.32,255.811 138.51,257.221 "
   id="polygon439"
   style="fill:#ffffff" />
	
		<rect
   x="118.578"
   y="271.50299"
   transform="matrix(-0.9835,0.181,-0.181,-0.9835,286.1376,518.2361)"
   clip-path="url(#SVGID_28_)"
   width="1.683"
   height="1.347"
   id="rect441"
   style="fill:#ffffff" />
</g>
<g
   id="g443"
   transform="matrix(5,0,0,5,-120.47771,-90.015)">
	<defs
   id="defs445">
		
			<rect
   id="SVGID_29_"
   x="109.713"
   y="269.74799"
   transform="matrix(-0.9256,-0.3785,0.3785,-0.9256,116.8083,585.4753)"
   width="12.453"
   height="23.021" />
	</defs>
	<clipPath
   id="SVGID_30_">
		<use
   xlink:href="#SVGID_29_"
   overflow="visible"
   id="use449"
   style="overflow:visible"
   x="0"
   y="0"
   width="281.62"
   height="363.24399" />
	</clipPath>
	<polygon
   clip-path="url(#SVGID_30_)"
   points="114.836,280.025 116.267,281.236 114.398,281.098 113.689,282.832 113.244,281.012 111.375,280.875 112.969,279.889 112.522,278.068 113.953,279.277 115.545,278.293 "
   id="polygon451"
   style="fill:#ffffff" />
	<polygon
   clip-path="url(#SVGID_30_)"
   points="116.238,287.465 117.162,289.098 115.456,288.318 114.188,289.701 114.4,287.838 112.695,287.061 114.533,286.686 114.746,284.824 115.669,286.457 117.507,286.084 "
   id="polygon453"
   style="fill:#ffffff" />
	<polygon
   clip-path="url(#SVGID_30_)"
   points="120.877,274.01 123.291,275.15 120.667,275.646 120.328,278.295 119.046,275.953 116.422,276.447 118.253,274.504 116.972,272.162 119.386,273.305 121.217,271.361 "
   id="polygon455"
   style="fill:#ffffff" />
	<polygon
   clip-path="url(#SVGID_30_)"
   points="110.572,287.098 111.502,287.537 110.492,287.729 110.359,288.748 109.865,287.846 108.855,288.037 109.561,287.287 109.066,286.387 109.997,286.826 110.703,286.076 "
   id="polygon457"
   style="fill:#ffffff" />
	
		<rect
   x="117.637"
   y="270.19699"
   transform="matrix(0.0459,0.9989,-0.9989,0.0459,383.3989,140.1132)"
   clip-path="url(#SVGID_30_)"
   width="1.425"
   height="1.141"
   id="rect459"
   style="fill:#ffffff" />
	
		<rect
   x="118.046"
   y="280.099"
   transform="matrix(-0.2589,0.9659,-0.9659,-0.2589,420.6069,238.6392)"
   clip-path="url(#SVGID_30_)"
   width="1.426"
   height="1.141"
   id="rect461"
   style="fill:#ffffff" />
	
		<rect
   x="119.783"
   y="283.94699"
   transform="matrix(-0.6656,0.7464,-0.7464,-0.6656,413.0417,383.9471)"
   clip-path="url(#SVGID_30_)"
   width="1.426"
   height="1.14"
   id="rect463"
   style="fill:#ffffff" />
	
		<rect
   x="109.141"
   y="282.961"
   transform="matrix(-0.6665,0.7455,-0.7455,-0.6665,394.0873,390.5326)"
   clip-path="url(#SVGID_30_)"
   width="1.113"
   height="0.89200002"
   id="rect465"
   style="fill:#ffffff" />
	
		<rect
   x="112.894"
   y="271.70801"
   transform="matrix(-0.3204,0.9473,-0.9473,-0.3204,407.6088,251.8884)"
   clip-path="url(#SVGID_30_)"
   width="1.115"
   height="0.89099997"
   id="rect467"
   style="fill:#ffffff" />
	<polygon
   clip-path="url(#SVGID_30_)"
   points="114.756,276.686 114.051,276.061 114.408,275.006 115.113,275.629 "
   id="polygon469"
   style="fill:#ffffff" />
	
		<rect
   x="111.471"
   y="290.93701"
   transform="matrix(-0.6244,0.7811,-0.7811,-0.6244,409.5832,385.8063)"
   clip-path="url(#SVGID_30_)"
   width="1.115"
   height="0.89200002"
   id="rect471"
   style="fill:#ffffff" />
</g>
<g
   id="g473"
   transform="matrix(5,0,0,5,-120.47771,-90.015)">
	<defs
   id="defs475">
		<rect
   id="SVGID_31_"
   width="281.62"
   height="363.24399"
   x="0"
   y="0" />
	</defs>
	<clipPath
   id="SVGID_32_">
		<use
   xlink:href="#SVGID_31_"
   overflow="visible"
   id="use479"
   style="overflow:visible"
   x="0"
   y="0"
   width="281.62"
   height="363.24399" />
	</clipPath>
	<path
   clip-path="url(#SVGID_32_)"
   clip-rule="evenodd"
   d="m 167.301,81.332 c 0,0 -0.623,0.92 -1.867,1.336 -1.244,0.416 -2.023,-0.377 -2.023,-0.377 l -13.336,-32.618 3.893,-0.958 13.333,32.617 z"
   id="path481"
   inkscape:connector-curvature="0"
   style="fill-rule:evenodd" />
	<path
   clip-path="url(#SVGID_32_)"
   clip-rule="evenodd"
   d="m 166.874,81.174 c 0,0 -0.49,0.518 -1.455,1.009 -0.967,0.491 -1.699,-0.062 -1.699,-0.062 l -2.412,-5.965 c 0,0 0.648,0.233 1.555,-0.21 0.906,-0.442 1.416,-1.135 1.416,-1.135 l 2.595,6.363 z"
   id="path483"
   inkscape:connector-curvature="0"
   style="fill:#ffffff;fill-rule:evenodd" />
	<path
   clip-path="url(#SVGID_32_)"
   clip-rule="evenodd"
   d="m 156.174,55.244 c 0,0 -0.404,0.821 -1.375,1.302 -0.971,0.484 -1.697,-0.078 -1.697,-0.078 l -2.416,-6.124 c 0,0 0.826,0.036 1.832,-0.287 0.959,-0.309 1.211,-0.894 1.211,-0.894 l 2.445,6.081 z"
   id="path485"
   inkscape:connector-curvature="0"
   style="fill:#ffffff;fill-rule:evenodd" />
	<path
   clip-path="url(#SVGID_32_)"
   d="m 150.202,49.843 c 0.082,0.279 0.98,0.264 2.006,-0.037 1.027,-0.299 1.791,-0.769 1.711,-1.049 -0.082,-0.281 -0.979,-0.266 -2.008,0.035 -1.026,0.301 -1.789,0.769 -1.709,1.051"
   id="path487"
   inkscape:connector-curvature="0"
   style="fill:#ffffff" />
	
		<ellipse
   transform="matrix(-0.9599,0.2804,-0.2804,-0.9599,311.8438,53.9767)"
   clip-path="url(#SVGID_32_)"
   cx="152.06"
   cy="49.299999"
   rx="1.936"
   ry="0.52700001"
   id="ellipse489"
   sodipodi:cx="152.06"
   sodipodi:cy="49.299999"
   sodipodi:rx="1.936"
   sodipodi:ry="0.52700001"
   style="fill:none;stroke:#000000;stroke-width:0.34799999"
   d="m 153.996,49.299999 c 0,0.291054 -0.86678,0.527 -1.936,0.527 -1.06923,0 -1.936,-0.235946 -1.936,-0.527 0,-0.291054 0.86677,-0.527 1.936,-0.527 1.06922,0 1.936,0.235946 1.936,0.527 z" />
	<path
   clip-path="url(#SVGID_32_)"
   d="m 36.193,82.538 c 0,0 -6.226,-7.24 -7.635,-12.126 0,0 0.798,-0.203 1.982,0.982 1.185,1.184 2.53,1.346 1.992,0.538 -0.538,-0.807 -2.68,-4.134 -2.228,-4.597 0.451,-0.464 1.32,-1.094 2.874,1.259 1.554,2.354 1.777,2.423 1.777,2.423 0,0 -2.584,-4.777 -1.83,-6.049 0,0 3.014,-1.327 3.337,1.311 0.323,2.638 1.561,3.661 1.4,2.854 -0.162,-0.808 -0.969,-5.007 0.323,-5.223 1.292,-0.215 2.584,0.108 3.553,2.423 0.969,2.315 1.46,2.357 1.699,2.39 0.239,0.033 1.316,3.263 1.908,1.109 0.593,-2.153 0.431,-4.737 3.769,-5.222 0,0 1.077,-0.323 0.323,1.292 -0.754,1.615 -0.485,3.446 -0.431,4.469 0.054,1.023 0.646,2.799 -0.861,5.114 -1.508,2.315 -3.623,3.086 -1.839,5.742 l -8.283,3.411 -1.83,-2.1 z"
   id="path491"
   inkscape:connector-curvature="0" />
</g>

<polygon
   points="146.36,31.834 144.899,33.676 142.696,32.854 143.997,34.813 142.536,36.657 144.801,36.025 146.1,37.983 146.2,35.633 148.465,35.003 146.262,34.183 "
   id="polygon1547"
   style="fill:#ffffff"
   transform="matrix(5,0,0,5,-120.47771,-90.015)" />
<polygon
   points="135.213,28.531 135.754,30.821 133.742,32.043 136.088,32.236 136.629,34.526 137.539,32.356 139.884,32.549 138.1,31.014 139.008,28.844 136.996,30.065 "
   id="polygon1549"
   style="fill:#ffffff"
   transform="matrix(5,0,0,5,-120.47771,-90.015)" />
<polygon
   points="147.397,40.193 146.063,43.267 142.727,42.946 145.237,45.165 143.901,48.239 146.788,46.538 149.299,48.757 148.573,45.486 151.459,43.785 148.124,43.464 "
   id="polygon1551"
   style="fill:#ffffff"
   transform="matrix(5,0,0,5,-120.47771,-90.015)" />
<polygon
   points="140.7,24.167 140.186,25.352 138.902,25.229 139.867,26.084 139.354,27.268 140.465,26.612 141.432,27.468 141.152,26.207 142.266,25.552 140.98,25.429 "
   id="polygon1553"
   style="fill:#ffffff"
   transform="matrix(5,0,0,5,-120.47771,-90.015)" />
<rect
   x="-623.03638"
   y="210.56857"
   transform="matrix(-0.85232374,-0.52301457,0.52301457,-0.85232374,0,0)"
   width="8.9497509"
   height="7.1548009"
   id="rect1555"
   style="fill:#ffffff" />
<rect
   x="-469.5784"
   y="369.54684"
   transform="matrix(-0.65351312,-0.75691519,0.75691519,-0.65351312,0,0)"
   width="8.9498205"
   height="7.1548562"
   id="rect1557"
   style="fill:#ffffff" />
<rect
   x="-241.17947"
   y="514.68323"
   transform="matrix(-0.2430062,-0.97002474,0.97002474,-0.2430062,0,0)"
   width="8.9397726"
   height="7.1498175"
   id="rect1559"
   style="fill:#ffffff" />
<rect
   x="-199.57436"
   y="570.89862"
   transform="matrix(-0.24180613,-0.97032458,0.97032458,-0.24180613,0,0)"
   width="6.9848228"
   height="5.5948582"
   id="rect1561"
   style="fill:#ffffff" />
<polygon
   points="153.973,39.243 153.081,39.918 153.926,41.032 154.817,40.357 154.815,40.355 "
   id="polygon1563"
   style="fill:#ffffff"
   transform="matrix(5,0,0,5,-120.47771,-90.015)" />
<polygon
   points="149.471,38.004 148.327,38.296 149.17,39.41 150.315,39.119 "
   id="polygon1565"
   style="fill:#ffffff"
   transform="matrix(5,0,0,5,-120.47771,-90.015)" />
<polygon
   points="135.318,24.272 134.25,24.601 134.25,24.601 134.661,25.938 135.73,25.607 "
   id="polygon1567"
   style="fill:#ffffff"
   transform="matrix(5,0,0,5,-120.47771,-90.015)" />
<polygon
   points="130.214,30.086 128.643,32.21 126.138,31.374 127.673,33.522 126.102,35.646 128.621,34.852 130.154,37.001 130.178,34.359 132.697,33.564 130.191,32.728 "
   id="polygon1569"
   style="fill:#ffffff"
   transform="matrix(5,0,0,5,-120.47771,-90.015)" />
<polygon
   points="127.642,20.317 128.336,22.87 126.125,24.318 128.766,24.447 129.459,26.998 130.397,24.526 133.039,24.653 130.978,22.999 131.914,20.525 129.703,21.975 "
   id="polygon1571"
   style="fill:#ffffff"
   transform="matrix(5,0,0,5,-120.47771,-90.015)" />
<polygon
   points="119.566,33.983 118.185,37.485 114.427,37.252 117.33,39.649 115.947,43.15 119.123,41.131 122.025,43.528 121.086,39.882 124.264,37.862 120.506,37.629 "
   id="polygon1573"
   style="fill:#ffffff"
   transform="matrix(5,0,0,5,-120.47771,-90.015)" />
<polygon
   points="136.816,23.158 136.281,24.505 134.835,24.416 135.953,25.339 135.421,26.688 136.645,25.91 137.763,26.833 137.402,25.429 138.626,24.651 137.178,24.561 "
   id="polygon1575"
   style="fill:#ffffff"
   transform="matrix(5,0,0,5,-120.47771,-90.015)" />
<polygon
   points="119.074,43.81 118.669,45.778 118.67,45.779 120.245,46.102 120.648,44.132 "
   id="polygon1577"
   style="fill:#ffffff"
   transform="matrix(5,0,0,5,-120.47771,-90.015)" />
<rect
   x="-466.01028"
   y="177.30734"
   transform="matrix(-0.87272421,-0.48821354,0.48821354,-0.87272421,0,0)"
   width="8.0447769"
   height="10.044722"
   id="rect1579"
   style="fill:#ffffff" />
<polygon
   points="121.88,24.193 120.215,25.315 120.214,25.317 121.113,26.65 122.779,25.526 "
   id="polygon1581"
   style="fill:#ffffff"
   transform="matrix(5,0,0,5,-120.47771,-90.015)" />
<rect
   x="-368.32172"
   y="423.79733"
   transform="matrix(-0.559399,-0.82889852,0.82889852,-0.559399,0,0)"
   width="6.2850113"
   height="7.8500147"
   id="rect1583"
   style="fill:#ffffff" />
<rect
   x="-507.12137"
   y="162.71559"
   transform="matrix(-0.83967745,-0.54308542,0.54308542,-0.83967745,0,0)"
   width="6.280169"
   height="7.8552108"
   id="rect1585"
   style="fill:#ffffff" />
<polygon
   points="126.623,38.116 125.77,39.435 126.516,40.533 127.37,39.214 "
   id="polygon1587"
   style="fill:#ffffff"
   transform="matrix(5,0,0,5,-120.47771,-90.015)" />
<polygon
   points="135.696,18.003 134.443,18.95 135.201,19.953 136.454,19.006 135.697,18.004 "
   id="polygon1589"
   style="fill:#ffffff"
   transform="matrix(5,0,0,5,-120.47771,-90.015)" />
<polygon
   points="109.381,57.857 107.113,59.553 104.802,57.919 105.713,60.6 103.445,62.293 106.275,62.255 107.187,64.935 108.023,62.231 110.854,62.193 108.543,60.562 "
   id="polygon1591"
   style="fill:#ffffff"
   transform="matrix(5,0,0,5,-120.47771,-90.015)" />
<polygon
   points="109.758,47.041 109.682,49.873 106.965,50.678 109.635,51.624 109.561,54.456 111.286,52.209 113.957,53.154 112.353,50.82 114.078,48.573 111.36,49.377 "
   id="polygon1593"
   style="fill:#ffffff"
   transform="matrix(5,0,0,5,-120.47771,-90.015)" />
<polygon
   points="97.253,58.571 94.754,61.737 90.971,60.337 93.209,63.694 90.709,66.86 94.592,65.767 96.83,69.123 96.992,65.092 100.876,64 97.091,62.601 "
   id="polygon1595"
   style="fill:#ffffff"
   transform="matrix(5,0,0,5,-120.47771,-90.015)" />
<polygon
   points="118.295,52.785 117.33,54.003 115.873,53.465 116.736,54.758 115.772,55.978 117.269,55.556 118.131,56.85 118.193,55.297 119.689,54.876 118.232,54.337 "
   id="polygon1597"
   style="fill:#ffffff"
   transform="matrix(5,0,0,5,-120.47771,-90.015)" />
<polygon
   points="93.715,68.5 92.691,70.396 92.692,70.397 94.209,71.214 95.231,69.318 "
   id="polygon1599"
   style="fill:#ffffff"
   transform="matrix(5,0,0,5,-120.47771,-90.015)" />
<rect
   x="-411.2471"
   y="136.95728"
   transform="matrix(-0.69520818,-0.71880845,0.71880845,-0.69520818,0,0)"
   width="8.6098986"
   height="10.764874"
   id="rect1601"
   style="fill:#ffffff" />
<rect
   x="-274.38907"
   y="317.91776"
   transform="matrix(-0.29699361,-0.95487947,0.95487947,-0.29699361,0,0)"
   width="8.6151857"
   height="10.770231"
   id="rect1603"
   style="fill:#ffffff" />
<rect
   x="-340.00531"
   y="367.05066"
   transform="matrix(-0.29720433,-0.9548139,0.9548139,-0.29720433,0,0)"
   width="6.7349019"
   height="8.4098778"
   id="rect1605"
   style="fill:#ffffff" />
<polygon
   points="101.588,70.814 100.305,71.904 101.176,72.93 101.178,72.927 102.459,71.841 "
   id="polygon1607"
   style="fill:#ffffff"
   transform="matrix(5,0,0,5,-120.47771,-90.015)" />
<polygon
   points="103.219,64.989 101.936,66.079 102.363,67.436 103.646,66.347 "
   id="polygon1609"
   style="fill:#ffffff"
   transform="matrix(5,0,0,5,-120.47771,-90.015)" />
<rect
   x="-308.02036"
   y="384.51129"
   transform="matrix(-0.34791032,-0.93752782,0.93752782,-0.34791032,0,0)"
   width="6.7348003"
   height="8.4147501"
   id="rect1611"
   style="fill:#ffffff" />
<polygon
   points="98.626,175.463 97.391,178.01 94.587,177.621 96.627,179.582 95.391,182.127 97.887,180.795 99.926,182.756 99.43,179.971 101.926,178.637 99.122,178.248 "
   id="polygon1613"
   style="fill:#ffffff"
   transform="matrix(5,0,0,5,-120.47771,-90.015)" />
<polygon
   points="109.797,171.207 107.753,173.17 105.255,171.832 106.488,174.383 104.445,176.344 107.252,175.959 108.486,178.508 108.986,175.721 111.793,175.334 109.296,173.996 "
   id="polygon1615"
   style="fill:#ffffff"
   transform="matrix(5,0,0,5,-120.47771,-90.015)" />
<polygon
   points="87.09,167.461 86.323,171.42 82.32,171.916 85.849,173.867 85.082,177.828 88.03,175.076 91.561,177.027 89.852,173.373 92.8,170.621 88.797,171.115 "
   id="polygon1617"
   style="fill:#ffffff"
   transform="matrix(5,0,0,5,-120.47771,-90.015)" />
<polygon
   points="109.631,180.076 109.336,181.604 107.794,181.793 109.152,182.545 108.857,184.07 109.994,183.012 111.354,183.764 110.695,182.354 111.831,181.295 110.289,181.482 "
   id="polygon1619"
   style="fill:#ffffff"
   transform="matrix(5,0,0,5,-120.47771,-90.015)" />
<polygon
   points="83.303,175.195 81.243,175.824 81.243,175.824 81.749,177.473 83.807,176.842 "
   id="polygon1621"
   style="fill:#ffffff"
   transform="matrix(5,0,0,5,-120.47771,-90.015)" />
<rect
   x="-377.63641"
   y="-770.44299"
   transform="matrix(-0.99994059,-0.01090044,0.01090044,-0.99994059,0,0)"
   width="10.764564"
   height="8.6046505"
   id="rect1623"
   style="fill:#ffffff" />
<rect
   x="-696.00757"
   y="-491.12701"
   transform="matrix(-0.88760616,-0.4606032,0.4606032,-0.88760616,0,0)"
   width="10.769925"
   height="8.6149406"
   id="rect1625"
   style="fill:#ffffff" />
<rect
   x="-742.78973"
   y="-556.76892"
   transform="matrix(-0.88770912,-0.46040473,0.46040473,-0.88770912,0,0)"
   width="8.4199133"
   height="6.7299309"
   id="rect1627"
   style="fill:#ffffff" />
<rect
   x="-376.91541"
   y="-802.40173"
   transform="matrix(-0.99715363,-0.07539649,0.07539649,-0.99715363,0,0)"
   width="8.415391"
   height="6.7303128"
   id="rect1629"
   style="fill:#ffffff" />
<polygon
   points="90.853,179.25 90.203,180.516 91.881,180.645 92.529,179.377 "
   id="polygon1631"
   style="fill:#ffffff"
   transform="matrix(5,0,0,5,-120.47771,-90.015)" />
<rect
   x="-747.77618"
   y="-544.47534"
   transform="matrix(-0.91127862,-0.41179034,0.41179034,-0.91127862,0,0)"
   width="8.4201975"
   height="6.735158"
   id="rect1633"
   style="fill:#ffffff" />
<polygon
   points="127.139,184.887 126.255,186.705 124.252,186.428 125.71,187.828 124.827,189.646 126.609,188.695 128.066,190.096 127.712,188.107 129.495,187.154 127.493,186.877 "
   id="polygon1635"
   style="fill:#ffffff"
   transform="matrix(5,0,0,5,-120.47771,-90.015)" />
<polygon
   points="135.117,181.848 133.656,183.248 131.873,182.293 132.754,184.115 131.295,185.516 133.299,185.242 134.181,187.063 134.539,185.07 136.543,184.795 134.76,183.84 "
   id="polygon1637"
   style="fill:#ffffff"
   transform="matrix(5,0,0,5,-120.47771,-90.015)" />
<polygon
   points="118.897,179.17 118.35,181.998 115.49,182.354 118.012,183.746 117.463,186.576 119.569,184.609 122.09,186.004 120.87,183.395 122.977,181.428 120.117,181.781 "
   id="polygon1639"
   style="fill:#ffffff"
   transform="matrix(5,0,0,5,-120.47771,-90.015)" />
<polygon
   points="134.999,188.182 134.788,189.271 133.686,189.408 134.658,189.945 134.447,191.035 135.258,190.277 136.229,190.816 135.759,189.809 136.57,189.051 135.469,189.188 "
   id="polygon1641"
   style="fill:#ffffff"
   transform="matrix(5,0,0,5,-120.47771,-90.015)" />
<polygon
   points="116.193,184.695 114.722,185.145 114.722,185.145 115.082,186.32 116.553,185.871 "
   id="polygon1643"
   style="fill:#ffffff"
   transform="matrix(5,0,0,5,-120.47771,-90.015)" />
<rect
   x="-522.10266"
   y="-819.41968"
   transform="matrix(-0.99993501,-0.0114004,0.0114004,-0.99993501,0,0)"
   width="7.6897306"
   height="6.1447849"
   id="rect1645"
   style="fill:#ffffff" />
<polygon
   points="129.037,178.688 128.471,179.779 129.836,180.488 130.402,179.395 129.037,178.688 "
   id="polygon1647"
   style="fill:#ffffff"
   transform="matrix(5,0,0,5,-120.47771,-90.015)" />
<rect
   x="-876.49457"
   y="-525.18005"
   transform="matrix(-0.88801774,-0.45980919,0.45980919,-0.88801774,0,0)"
   width="6.0098805"
   height="4.804904"
   id="rect1649"
   style="fill:#ffffff" />
<rect
   x="-537.63251"
   y="-825.97308"
   transform="matrix(-0.99719856,-0.07479989,0.07479989,-0.99719856,0,0)"
   width="6.0100093"
   height="4.8100071"
   id="rect1651"
   style="fill:#ffffff" />
<polygon
   points="121.586,187.592 121.121,188.496 122.319,188.588 122.783,187.682 "
   id="polygon1653"
   style="fill:#ffffff"
   transform="matrix(5,0,0,5,-120.47771,-90.015)" />
<rect
   x="-873.41779"
   y="-533.8501"
   transform="matrix(-0.91109451,-0.41219752,0.41219752,-0.91109451,0,0)"
   width="6.0200362"
   height="4.810029"
   id="rect1655"
   style="fill:#ffffff" />
<polygon
   points="73.917,79.01 73.689,81.831 70.937,82.486 73.549,83.575 73.32,86.396 75.163,84.247 77.775,85.336 76.303,82.92 78.145,80.771 75.391,81.427 "
   id="polygon1657"
   style="fill:#ffffff"
   transform="matrix(5,0,0,5,-120.47771,-90.015)" />
<polygon
   points="82.784,70.994 81.591,73.563 78.778,73.223 80.853,75.152 79.661,77.721 82.135,76.344 84.21,78.271 83.666,75.493 86.141,74.115 83.328,73.774 "
   id="polygon1659"
   style="fill:#ffffff"
   transform="matrix(5,0,0,5,-120.47771,-90.015)" />
<polygon
   points="60.263,75.739 60.986,79.708 57.435,81.621 61.431,82.16 62.154,86.129 63.903,82.493 67.901,83.033 64.983,80.246 66.732,76.611 63.181,78.525 "
   id="polygon1661"
   style="fill:#ffffff"
   transform="matrix(5,0,0,5,-120.47771,-90.015)" />
<polygon
   points="85.847,79.317 86.126,80.847 84.757,81.583 86.298,81.791 86.576,83.319 87.249,81.92 88.789,82.127 87.666,81.054 88.339,79.654 86.971,80.39 "
   id="polygon1663"
   style="fill:#ffffff"
   transform="matrix(5,0,0,5,-120.47771,-90.015)" />
<rect
   x="-378.68173"
   y="-77.168968"
   transform="matrix(-0.61978045,-0.78477525,0.78477525,-0.61978045,0,0)"
   width="8.6152725"
   height="10.765341"
   id="rect1665"
   style="fill:#ffffff" />
<rect
   x="-360.45428"
   y="111.3955"
   transform="matrix(-0.3520876,-0.93596705,0.93596705,-0.3520876,0,0)"
   width="8.6203032"
   height="10.770379"
   id="rect1667"
   style="fill:#ffffff" />
<rect
   x="-282.81735"
   y="-240.70073"
   transform="matrix(-0.99429136,-0.10669907,0.10669907,-0.99429136,0,0)"
   width="10.770094"
   height="8.610075"
   id="rect1669"
   style="fill:#ffffff" />
<rect
   x="-329.76776"
   y="-306.08069"
   transform="matrix(-0.99425949,-0.10699564,0.10699564,-0.99425949,0,0)"
   width="8.4153423"
   height="6.7302742"
   id="rect1671"
   style="fill:#ffffff" />
<rect
   x="-409.87161"
   y="87.018234"
   transform="matrix(-0.29140036,-0.95660119,0.95660119,-0.29140036,0,0)"
   width="6.7299914"
   height="8.4199896"
   id="rect1673"
   style="fill:#ffffff" />
<polygon
   points="69.657,84.869 68.047,85.36 67.901,86.776 69.51,86.285 "
   id="polygon1675"
   style="fill:#ffffff"
   transform="matrix(5,0,0,5,-120.47771,-90.015)" />
<rect
   x="-348.91641"
   y="-271.96335"
   transform="matrix(-0.99860509,-0.05280027,0.05280027,-0.99860509,0,0)"
   width="8.414957"
   height="6.7349653"
   id="rect1677"
   style="fill:#ffffff" />
<polygon
   points="42.253,83.933 40.77,86.344 38.02,85.678 39.854,87.834 38.371,90.244 40.987,89.165 42.821,91.32 42.604,88.499 45.221,87.421 42.47,86.755 "
   id="polygon1679"
   style="fill:#ffffff"
   transform="matrix(5,0,0,5,-120.47771,-90.015)" />
<polygon
   points="53.792,80.813 51.563,82.562 49.211,80.982 50.185,83.642 47.956,85.391 50.787,85.286 51.761,87.946 52.537,85.222 55.367,85.118 53.016,83.538 "
   id="polygon1681"
   style="fill:#ffffff"
   transform="matrix(5,0,0,5,-120.47771,-90.015)" />
<polygon
   points="31.572,74.822 30.414,78.686 26.382,78.78 29.699,81.074 28.541,84.937 31.75,82.492 35.067,84.787 33.731,80.979 36.939,78.535 32.907,78.627 "
   id="polygon1683"
   style="fill:#ffffff"
   transform="matrix(5,0,0,5,-120.47771,-90.015)" />
<polygon
   points="52.744,89.62 52.299,91.109 50.745,91.145 52.023,92.03 51.577,93.518 52.813,92.577 54.091,93.46 53.577,91.993 54.812,91.051 53.258,91.086 "
   id="polygon1685"
   style="fill:#ffffff"
   transform="matrix(5,0,0,5,-120.47771,-90.015)" />
<polygon
   points="27.033,82.14 24.922,82.561 24.922,82.563 25.26,84.251 27.371,83.829 "
   id="polygon1687"
   style="fill:#ffffff"
   transform="matrix(5,0,0,5,-120.47771,-90.015)" />
<rect
   x="-123.19128"
   y="-304.79343"
   transform="matrix(-0.99383118,-0.11090348,0.11090348,-0.99383118,0,0)"
   width="10.764664"
   height="8.6147299"
   id="rect1689"
   style="fill:#ffffff" />
<rect
   x="-258.66907"
   y="-190.56813"
   transform="matrix(-0.83778959,-0.54599322,0.54599322,-0.83778959,0,0)"
   width="10.770134"
   height="8.6101065"
   id="rect1691"
   style="fill:#ffffff" />
<rect
   x="-306.02856"
   y="-255.50972"
   transform="matrix(-0.83672818,-0.54761844,0.54761844,-0.83672818,0,0)"
   width="8.4197159"
   height="6.7397733"
   id="rect1693"
   style="fill:#ffffff" />
<rect
   x="-92.974167"
   y="-354.24252"
   transform="matrix(-0.98463824,-0.17460678,0.17460678,-0.98463824,0,0)"
   width="8.4146729"
   height="6.7297382"
   id="rect1695"
   style="fill:#ffffff" />
<polygon
   points="34.142,86.927 33.369,88.122 35.026,88.416 35.799,87.221 "
   id="polygon1697"
   style="fill:#ffffff"
   transform="matrix(5,0,0,5,-120.47771,-90.015)" />
<rect
   x="-327.57126"
   y="-220.48248"
   transform="matrix(-0.86586411,-0.50027926,0.50027926,-0.86586411,0,0)"
   width="8.4153481"
   height="6.7252789"
   id="rect1699"
   style="fill:#ffffff" />
<polygon
   points="74.376,57.311 73.946,60.108 71.152,60.562 73.68,61.837 73.248,64.633 75.241,62.624 77.768,63.897 76.473,61.381 78.466,59.372 75.671,59.826 "
   id="polygon1701"
   style="fill:#ffffff"
   transform="matrix(5,0,0,5,-120.47771,-90.015)" />
<polygon
   points="83.798,49.953 82.423,52.431 79.642,51.888 81.572,53.962 80.197,56.439 82.766,55.244 84.696,57.315 84.353,54.505 86.922,53.309 84.14,52.767 "
   id="polygon1703"
   style="fill:#ffffff"
   transform="matrix(5,0,0,5,-120.47771,-90.015)" />
<polygon
   points="60.994,53.062 61.428,57.072 57.748,58.724 61.695,59.551 62.13,63.561 64.137,60.062 68.085,60.888 65.375,57.898 67.382,54.399 63.702,56.051 "
   id="polygon1705"
   style="fill:#ffffff"
   transform="matrix(5,0,0,5,-120.47771,-90.015)" />
<polygon
   points="86.253,58.478 86.421,60.022 85.003,60.658 86.524,60.978 86.691,62.522 87.464,61.174 88.985,61.493 87.942,60.34 88.714,58.993 87.297,59.628 "
   id="polygon1707"
   style="fill:#ffffff"
   transform="matrix(5,0,0,5,-120.47771,-90.015)" />
<rect
   x="-288.69781"
   y="14.055131"
   transform="matrix(-0.56142071,-0.82753053,0.82753053,-0.56142071,0,0)"
   width="8.6146822"
   height="10.764604"
   id="rect1709"
   style="fill:#ffffff" />
<rect
   x="-247.01074"
   y="170.91164"
   transform="matrix(-0.28370356,-0.95891203,0.95891203,-0.28370356,0,0)"
   width="8.614892"
   height="10.764866"
   id="rect1711"
   style="fill:#ffffff" />
<polygon
   points="74.362,48.233 74.361,48.233 74.054,49.928 76.173,50.312 76.48,48.617 "
   id="polygon1713"
   style="fill:#ffffff"
   transform="matrix(5,0,0,5,-120.47771,-90.015)" />
<rect
   x="-332.04041"
   y="-177.80106"
   transform="matrix(-0.9838475,-0.17900864,0.17900864,-0.9838475,0,0)"
   width="8.4145937"
   height="6.7346745"
   id="rect1715"
   style="fill:#ffffff" />
<rect
   x="-292.9516"
   y="138.99393"
   transform="matrix(-0.22239035,-0.97495771,0.97495771,-0.22239035,0,0)"
   width="6.7302918"
   height="8.4153643"
   id="rect1717"
   style="fill:#ffffff" />
<polygon
   points="69.705,62.847 68.063,63.22 67.815,64.621 69.457,64.249 "
   id="polygon1719"
   style="fill:#ffffff"
   transform="matrix(5,0,0,5,-120.47771,-90.015)" />
<polygon
   points="90.039,53.991 89.871,55.327 91.541,55.537 91.711,54.203 91.709,54.201 "
   id="polygon1721"
   style="fill:#ffffff"
   transform="matrix(5,0,0,5,-120.47771,-90.015)" />
<polygon
   points="132.829,65.833 130.77,67.774 128.287,66.415 129.497,68.974 127.438,70.914 130.244,70.554 131.454,73.113 131.98,70.333 134.787,69.973 132.305,68.614 "
   id="polygon1723"
   style="fill:#ffffff"
   transform="matrix(5,0,0,5,-120.47771,-90.015)" />
<polygon
   points="140.316,64.794 140.563,67.617 137.957,68.724 140.717,69.36 140.965,72.183 142.424,69.753 145.184,70.391 143.325,68.251 144.784,65.824 142.176,66.932 "
   id="polygon1725"
   style="fill:#ffffff"
   transform="matrix(5,0,0,5,-120.47771,-90.015)" />
<polygon
   points="124.888,54.254 122.764,57.683 118.846,56.725 121.451,59.803 119.328,63.232 123.063,61.706 125.668,64.786 125.369,60.762 129.104,59.236 125.186,58.277 "
   id="polygon1727"
   style="fill:#ffffff"
   transform="matrix(5,0,0,5,-120.47771,-90.015)" />
<polygon
   points="141.479,74.055 140.66,75.376 139.151,75.006 140.155,76.192 139.338,77.514 140.775,76.926 141.78,78.113 141.665,76.563 143.102,75.976 141.594,75.604 "
   id="polygon1729"
   style="fill:#ffffff"
   transform="matrix(5,0,0,5,-120.47771,-90.015)" />
<rect
   x="-187.77003"
   y="474.60577"
   transform="matrix(0.06580216,-0.99783269,0.99783269,0.06580216,0,0)"
   width="8.6097183"
   height="10.764647"
   id="rect1731"
   style="fill:#ffffff" />
<rect
   x="-589.86804"
   y="-10.797481"
   transform="matrix(-0.93061286,-0.36600506,0.36600506,-0.93061286,0,0)"
   width="10.764852"
   height="8.6148815"
   id="rect1733"
   style="fill:#ffffff" />
<rect
   x="-543.22211"
   y="282.06406"
   transform="matrix(-0.66639723,-0.7455969,0.7455969,-0.66639723,0,0)"
   width="10.770045"
   height="8.6200352"
   id="rect1735"
   style="fill:#ffffff" />
<rect
   x="-589.96039"
   y="216.88799"
   transform="matrix(-0.66592037,-0.74602282,0.74602282,-0.66592037,0,0)"
   width="8.4097424"
   height="6.7347937"
   id="rect1737"
   style="fill:#ffffff" />
<polygon
   points="118.24,67.547 117.669,68.766 117.669,68.766 119.193,69.482 119.764,68.262 "
   id="polygon1739"
   style="fill:#ffffff"
   transform="matrix(5,0,0,5,-120.47771,-90.015)" />
<polygon
   points="124.218,66.612 123.16,67.564 124.684,68.28 125.74,67.326 "
   id="polygon1741"
   style="fill:#ffffff"
   transform="matrix(5,0,0,5,-120.47771,-90.015)" />
<polygon
   points="147.223,72.846 146.27,73.795 147.458,74.988 148.411,74.039 148.411,74.038 "
   id="polygon1743"
   style="fill:#ffffff"
   transform="matrix(5,0,0,5,-120.47771,-90.015)" />
<polygon
   points="124.625,44.813 124.842,40.784 127.035,44.17 130.932,43.13 128.39,46.261 130.582,49.648 126.818,48.198 124.275,51.329 124.492,47.301 120.728,45.852 "
   id="polygon1745"
   style="fill:#ffffff"
   transform="matrix(5,0,0,5,-120.47771,-90.015)" />
<polygon
   points="105.088,67.48 105.201,65.351 106.361,67.14 108.42,66.591 107.076,68.245 108.236,70.035 106.246,69.269 104.902,70.923 105.017,68.795 103.027,68.029 "
   id="polygon1747"
   style="fill:#ffffff"
   transform="matrix(5,0,0,5,-120.47771,-90.015)" />
</svg>