<?xml version="1.0" encoding="utf-8"?>
<!-- Generator: Adobe Illustrator 15.1.0, SVG Export Plug-In . SVG Version: 6.00 Build 0)  -->
<!DOCTYPE svg PUBLIC "-//W3C//DTD SVG 1.1//EN" "http://www.w3.org/Graphics/SVG/1.1/DTD/svg11.dtd">
<svg version="1.1" id="Calque_1" xmlns="http://www.w3.org/2000/svg" xmlns:xlink="http://www.w3.org/1999/xlink" x="0px" y="0px"
	 width="78px" height="362px" viewBox="0 0 78 362" enable-background="new 0 0 78 362" xml:space="preserve">
<path fill="#FFFFFF" d="M20.952,343.004c0-1.725-1.635-2.592-4.906-2.6c-1.549-0.011-2.717,0.11-3.503,0.36
	c-1.248,0.394-1.873,1.139-1.873,2.239v4.328h0.133c0.394-1.927,1.484-2.912,3.266-2.962c1.182-0.044,1.772,0.353,1.772,1.184v1.958
	c0,0.403-0.19,0.803-0.566,1.196l-3.671,3.902c-0.622,0.659-0.935,1.261-0.935,1.8v5.142c0,1.098,0.539,1.845,1.612,2.237
	c0.729,0.273,1.869,0.414,3.428,0.414c1.609,0,2.793-0.141,3.559-0.414c1.123-0.402,1.684-1.147,1.684-2.237v-4.959h-0.103
	c-0.209,0.894-0.422,1.505-0.636,1.83c-0.491,0.763-1.271,1.147-2.336,1.147c-1.385,0-2.08-0.428-2.08-1.276v-0.502
	c0-0.312,0.29-0.785,0.874-1.432l3.017-3.348c0.564-0.616,0.873-0.977,0.933-1.082c0.221-0.385,0.332-0.929,0.332-1.637V343.004z
	 M30.597,361.932c-0.436-0.125-0.819-0.407-1.147-0.836c-0.364-0.482-0.548-1.012-0.548-1.584V340.48l-6.277,3.939v0.271
	c0.542,0.027,0.907,0.154,1.09,0.394c0.184,0.234,0.279,0.612,0.279,1.14v13.273c0,1.23-0.563,2.037-1.688,2.434v0.064h8.292
	V361.932z M42.335,361.896c-0.566-0.188-0.852-0.557-0.852-1.094v-11.397c0-0.755-0.247-1.347-0.732-1.765
	c-0.489-0.42-1.133-0.635-1.927-0.645c-1.2,0-2.2,0.36-3.003,1.083v-8.243l-4.852,3.348v0.104c0.563,0.026,0.841,0.378,0.841,1.056
	v17.654h4.838v-0.101c-0.551-0.216-0.827-0.605-0.827-1.172v-9.747c0-0.738,0.318-1.109,0.955-1.109c0.652,0,0.974,0.36,0.974,1.081
	v11.048h4.585V361.896z M53.049,343.724c0-2.22-1.694-3.337-5.082-3.337c-3.455,0-5.182,1.117-5.182,3.337v14.563
	c0,1.575,0.495,2.65,1.479,3.233c0.777,0.455,2.015,0.666,3.72,0.631c1.719-0.045,2.971-0.32,3.744-0.835
	c0.881-0.593,1.32-1.603,1.32-3.029V343.724z M48.707,356.166c0,0.745-0.262,1.121-0.781,1.133c-0.545,0.01-0.814-0.366-0.814-1.133
	v-9.66c0-0.876,0.28-1.313,0.841-1.313c0.517,0,0.769,0.438,0.769,1.313L48.707,356.166z M64.672,343.724
	c0-2.22-1.69-3.337-5.077-3.337c-3.46,0-5.185,1.117-5.185,3.337v14.563c0,1.575,0.494,2.65,1.482,3.233
	c0.773,0.455,2.011,0.666,3.713,0.631c1.725-0.045,2.971-0.32,3.749-0.835c0.884-0.593,1.317-1.603,1.317-3.029V343.724z
	 M60.332,356.166c0,0.745-0.261,1.121-0.783,1.133c-0.542,0.01-0.812-0.366-0.812-1.133v-9.66c0-0.876,0.278-1.313,0.842-1.313
	c0.513,0,0.767,0.438,0.767,1.313L60.332,356.166z"/>
<path fill="#FFFFFF" d="M36.295,300.26h-10.9l0.021,0.277c0.482,0.311,0.616,0.897,0.411,1.767l-3.225,13.777l-2.669-14.015
	c-0.177-0.935,0.063-1.5,0.722-1.703v-0.104H9.851v0.104c1.508,0.414,2.261,1.641,2.261,3.687v28.832c0,1.959-0.93,3.268-2.792,3.92
	v0.106h10.976v-0.106c-0.726-0.228-1.357-0.676-1.904-1.344c-0.594-0.752-0.888-1.604-0.888-2.556v-14.929h0.189l3.658,18.487h0.771
	l4.403-18.592h0.216l-0.027,15.524c0,1.818-0.712,2.945-2.137,3.386v0.129h11.569v-0.15c-1.503-0.509-2.26-1.648-2.26-3.404v-29.326
	c0-1.704,0.804-2.903,2.408-3.599V300.26z M52.775,333.265v-17.565c0-1.039-0.321-1.886-0.961-2.548
	c-0.641-0.659-1.56-0.987-2.742-0.987h-5.775c-1.522,0-2.663,0.674-3.416,2.021l-1.346,2.448c-0.435,0.782-0.649,1.472-0.649,2.065
	c1.362-1.29,3.008-1.938,4.934-1.938h2.427c0.547,0,0.818,0.213,0.818,0.641v0.703c0,0.383-0.271,0.774-0.818,1.166l-7.36,5.348
	c-0.453,0.326-0.731,0.688-0.845,1.087c-0.112,0.397-0.167,1.229-0.167,2.493v5.983c0,1.817,1.098,2.727,3.296,2.727h2.885
	c1.336,0,2.377-0.959,3.127-2.878h0.074c0.143,1.919,0.979,2.878,2.504,2.878h5.195C53.17,336.14,52.775,334.927,52.775,333.265
	 M44.62,331.923c-0.722,0-1.085-0.31-1.085-0.937v-3.109c0-0.992,0.299-1.688,0.895-2.084l1.635-1.133v7.263H44.62z M62.684,303.985
	c-0.819-0.77-1.805-1.152-2.958-1.152c-1.174,0-2.167,0.383-2.984,1.152c-0.817,0.766-1.228,1.689-1.228,2.768
	c0,1.079,0.41,2,1.228,2.769c0.817,0.767,1.811,1.151,2.984,1.151c1.153,0,2.139-0.385,2.958-1.151
	c0.817-0.769,1.228-1.689,1.228-2.769C63.911,305.675,63.501,304.751,62.684,303.985 M64.102,336.65
	c-0.883-0.127-1.32-0.58-1.32-1.362v-23.83l-8.037,5.584v0.231c0.929,0.028,1.396,0.608,1.396,1.744v17.891h7.961V336.65z"/>
<rect x="9.273" y="-0.183" width="55.773" height="245.879"/>
<path fill="#FFFFFF" d="M41.776,222.466v0.047c2.386,0.521,3.573,1.432,3.573,2.725v2.682H23.788c-1.654,0-2.642-0.457-2.961-1.379
	h-0.083v7.215h0.083c0.332-0.924,1.316-1.391,2.961-1.391h23.065c1.633,0,2.711,0.573,3.236,1.717h0.082v-11.615H41.776z
	 M44.308,211.444l0.015,0.134c1.107,0.365,1.662,1.197,1.662,2.503v1.113c0,1.201-0.473,1.816-1.418,1.835
	c-0.629,0.011-1.301-0.362-2.021-1.111l-3.163-3.302c-0.729-0.762-1.555-1.141-2.478-1.141h-4.261c-0.659,0-1.195,0.186-1.608,0.56
	c-0.365,0.348-0.544,0.782-0.544,1.307v5.732c0,0.603,0.2,1.115,0.599,1.541c0.398,0.424,0.94,0.637,1.617,0.637h15.156
	c1.54,0,2.309-0.682,2.309-2.045v-4.919c0-1.976-1.404-2.965-4.207-2.979C45.295,211.3,44.742,211.345,44.308,211.444
	 M37.448,216.258l0.926,0.949h-3.077c-0.936,0-1.417-0.282-1.439-0.844c-0.02-0.544,0.406-0.816,1.285-0.816h0.271
	C36.327,215.547,37.004,215.785,37.448,216.258 M41.776,192.864v0.045c2.386,0.523,3.573,1.432,3.573,2.728v2.681H23.788
	c-1.654,0-2.642-0.459-2.961-1.378h-0.083v7.214h0.083c0.332-0.928,1.316-1.393,2.961-1.393h23.065c1.633,0,2.711,0.575,3.236,1.719
	h0.082v-11.615H41.776z M30.491,181.871v5.765h0.135c0.116-0.496,0.474-0.741,1.078-0.741c0.112,0,0.234,0.01,0.358,0.028
	l6.634,1.229v0.075l-6.583,1.141c-0.184,0.031-0.348,0.043-0.493,0.043c-0.505,0-0.834-0.19-0.995-0.579h-0.135v5.736l0.116-0.015
	c0.14-0.486,0.64-0.806,1.506-0.964l16.81-3.082c0.628-0.108,1.171-0.162,1.628-0.162c1.356,0,2.014,0.479,1.967,1.438
	c-0.037,0.603-0.725,1.313-2.07,2.134h7.455c0.799-0.701,1.182-1.665,1.147-2.889c-0.05-1.541-0.74-2.652-2.087-3.335
	c-0.626-0.307-1.926-0.641-3.899-1.009l-20.674-3.851c-1.083-0.198-1.677-0.52-1.783-0.963H30.491z M42.852,172.715
	c-1.195,0-2.186,0.406-2.972,1.215c-0.116,0.108-0.657,0.855-1.625,2.234c-0.561,0.803-1.155,1.204-1.779,1.204
	c-1.116-0.012-1.646-0.639-1.593-1.882c0.071-1.463,0.811-2.337,2.225-2.623v-0.148h-3.281c-2.468,0-3.691,1.495-3.677,4.488
	c0.022,3.202,1.315,4.801,3.877,4.801h3.627c0.982,0,1.861-0.411,2.635-1.229c0.137-0.14,0.611-0.786,1.419-1.942
	c0.548-0.769,0.849-1.19,0.903-1.258c0.414-0.414,0.903-0.631,1.475-0.65c0.604-0.01,1.036,0.207,1.303,0.65
	c0.211,0.376,0.303,0.884,0.273,1.527c-0.04,0.75-0.438,1.397-1.203,1.939c-0.684,0.485-1.442,0.751-2.29,0.801l-0.018,0.148h4.669
	c1.531,0,2.563-0.513,3.098-1.541c0.353-0.65,0.529-1.666,0.529-3.036c0-1.701-0.311-2.93-0.922-3.689
	c-0.545-0.673-1.404-1.008-2.566-1.008H42.852z M47.576,156.239H20.745l4.497,4.949h0.08c0.058-0.582,0.525-0.874,1.406-0.874
	l3.763,0.015v3.141c0,0.641,0.217,1.158,0.65,1.547c0.434,0.392,1.011,0.586,1.742,0.586h13.256c2.686,0,4.033-0.683,4.033-2.046
	v-1.214c0-0.642-0.135-1.086-0.407-1.333c-0.118-0.098-0.61-0.355-1.488-0.771c0.777-0.275,1.194-0.435,1.265-0.474
	c0.424-0.257,0.631-0.658,0.631-1.201v-3.214C49.365,155.943,48.498,156.239,47.576,156.239 M46.584,160.921
	c0,0.555-0.332,0.829-0.992,0.829H35.177c-0.753,0-1.13-0.274-1.13-0.829c0-0.464,0.366-0.698,1.096-0.698h10.432
	C46.248,160.223,46.584,160.457,46.584,160.921 M20.745,151.779c0,0.81,0.361,1.479,1.091,2c0.675,0.494,1.459,0.743,2.361,0.743
	h5.726v-0.074c-2.382-0.425-3.493-1.315-3.332-2.668H20.745z M30.818,144.594c-0.425,0.634-0.636,1.762-0.636,3.393
	c0,1.541,0.237,2.662,0.717,3.364c0.708,1.036,2.035,1.554,3.983,1.554l11.17-0.014c2.086,0,3.414-0.567,3.984-1.705
	c0.229-0.482,0.347-1.548,0.359-3.199c0.011-1.581-0.126-2.642-0.412-3.185c-0.589-1.117-1.933-1.675-4.02-1.675l-11.099-0.016
	C32.826,143.111,31.475,143.605,30.818,144.594 M45.35,147.987c0,0.522-0.299,0.786-0.9,0.786H36.75
	c-0.868,0-1.287-0.267-1.266-0.801c0.022-0.484,0.446-0.726,1.266-0.726h7.699C45.051,147.246,45.35,147.493,45.35,147.987
	 M33.329,131.734c-2.042,0-3.05,0.905-3.028,2.71c0.013,1.127,0.485,2.075,1.419,2.844h-1.984l4.551,4.951h0.154
	c0.023-0.573,0.491-0.86,1.402-0.86h14.329v-4.905h-0.206c-0.104,0.543-0.51,0.814-1.214,0.814H35.536
	c-1.005,0-1.493-0.304-1.471-0.917c0-0.552,0.477-0.831,1.438-0.831h4.598l-4.087-3.806H33.329z M47.576,115.569H20.745l4.497,4.949
	h0.08c0.058-0.583,0.525-0.875,1.406-0.875l3.763,0.015v3.142c0,0.642,0.217,1.161,0.65,1.548c0.434,0.391,1.011,0.586,1.742,0.586
	h13.256c2.686,0,4.033-0.681,4.033-2.043v-1.216c0-0.643-0.135-1.086-0.407-1.334c-0.118-0.098-0.61-0.357-1.488-0.772
	c0.777-0.277,1.194-0.434,1.265-0.473c0.424-0.256,0.631-0.657,0.631-1.201v-3.215C49.365,115.274,48.498,115.569,47.576,115.569
	 M46.584,120.25c0,0.555-0.332,0.831-0.992,0.831H35.177c-0.753,0-1.13-0.276-1.13-0.831c0-0.463,0.366-0.694,1.096-0.694h10.432
	C46.248,119.556,46.584,119.787,46.584,120.25 M44.308,104.221l0.015,0.134c1.107,0.365,1.662,1.199,1.662,2.502v1.112
	c0,1.204-0.473,1.817-1.418,1.837c-0.629,0.01-1.301-0.362-2.021-1.112l-3.163-3.304c-0.729-0.759-1.555-1.141-2.478-1.141h-4.261
	c-0.659,0-1.195,0.188-1.608,0.563c-0.365,0.346-0.544,0.781-0.544,1.304v5.735c0,0.602,0.2,1.115,0.599,1.54
	c0.398,0.424,0.94,0.639,1.617,0.639h15.156c1.54,0,2.309-0.683,2.309-2.046v-4.919c0-1.976-1.404-2.967-4.207-2.978
	C45.295,104.076,44.742,104.121,44.308,104.221 M37.448,109.035l0.926,0.948h-3.077c-0.936,0-1.417-0.28-1.439-0.843
	c-0.02-0.544,0.406-0.816,1.285-0.816h0.271C36.327,108.323,37.004,108.561,37.448,109.035 M49.966,91.494
	c-0.104,0.542-0.46,0.814-1.093,0.814H20.745l4.439,4.949h0.138c0.026-0.573,0.494-0.86,1.406-0.86h23.444v-4.902H49.966z
	 M47.246,81.314h-14.11c-0.829,0-1.507,0.199-2.038,0.592c-0.53,0.396-0.797,0.958-0.797,1.688v3.557
	c0,0.937,0.541,1.639,1.622,2.104l1.972,0.829c0.625,0.268,1.179,0.401,1.659,0.401c-1.038-0.841-1.557-1.853-1.557-3.037v-1.497
	c0-0.335,0.168-0.504,0.516-0.504h0.561c0.31,0,0.621,0.169,0.94,0.504l4.289,4.534c0.269,0.276,0.558,0.449,0.877,0.518
	c0.317,0.07,0.982,0.104,2.001,0.104h4.806c1.458,0,2.187-0.677,2.187-2.03v-1.777c0-0.82-0.769-1.461-2.309-1.928V85.33
	c1.54-0.089,2.309-0.602,2.309-1.541v-3.201C49.557,81.072,48.58,81.314,47.246,81.314 M46.174,86.337
	c0,0.443-0.254,0.667-0.754,0.667h-2.496c-0.797,0-1.356-0.183-1.677-0.549l-0.905-1.007h5.832V86.337z M50.037,57.061
	c-0.252,0.572-0.734,0.859-1.457,0.859H33.448c-0.991,0-1.775,0.256-2.358,0.77c-0.536,0.485-0.811,1.13-0.823,1.942
	c0,1.174,0.354,2.299,1.06,3.378c-0.693,0.433-1.047,1.164-1.06,2.191c0,1.146,0.474,2.115,1.418,2.904h-1.949l4.535,4.95h0.118
	c0.047-0.573,0.513-0.86,1.401-0.86h14.381v-4.905h-0.206c-0.104,0.542-0.51,0.815-1.214,0.815H35.536
	c-0.981,0-1.471-0.286-1.471-0.86c0-0.592,0.477-0.888,1.438-0.888h14.669v-4.682h-0.135c-0.252,0.573-0.734,0.859-1.457,0.859
	H35.536c-0.981,0-1.471-0.286-1.471-0.859c0-0.591,0.477-0.89,1.438-0.89h14.669v-4.725H50.037z M47.246,46.865h-14.11
	c-0.829,0-1.507,0.2-2.038,0.595c-0.53,0.394-0.797,0.958-0.797,1.688v3.556c0,0.938,0.541,1.639,1.622,2.104l1.972,0.831
	c0.625,0.266,1.179,0.398,1.659,0.398c-1.038-0.84-1.557-1.853-1.557-3.037v-1.496c0-0.336,0.168-0.504,0.516-0.504h0.561
	c0.31,0,0.621,0.167,0.94,0.504l4.289,4.533c0.269,0.277,0.558,0.451,0.877,0.518c0.317,0.071,0.982,0.105,2.001,0.105h4.806
	c1.458,0,2.187-0.675,2.187-2.029v-1.778c0-0.819-0.769-1.462-2.309-1.927v-0.043c1.54-0.088,2.309-0.603,2.309-1.542v-3.199
	C49.557,46.624,48.58,46.865,47.246,46.865 M46.174,51.889c0,0.445-0.254,0.667-0.754,0.667h-2.496c-0.797,0-1.356-0.184-1.677-0.55
	l-0.905-1.006h5.832V51.889z M30.491,39.488c0.295,0.188,0.669,0.321,1.129,0.401c-0.913,0.424-1.368,1.248-1.368,2.474
	c0,2.103,1.648,3.154,4.939,3.154l10.4-0.014c1.347,0,2.306-0.109,2.887-0.327c1.256-0.464,1.889-1.432,1.9-2.903
	c0.012-0.622-0.078-1.259-0.272-1.912h1.277c0.851,0,1.271,0.177,1.271,0.534c0,0.385-0.412,0.578-1.23,0.578h-0.447v3.69
	l0.65-0.014c1.641-0.021,2.741-0.342,3.301-0.966c0.535-0.59,0.791-1.727,0.77-3.407c-0.033-1.778-0.25-2.958-0.647-3.54
	c-0.655-0.939-2.055-1.408-4.21-1.408H32.865c-0.936,0-1.724-0.179-2.374-0.533V39.488z M46.003,40.51v0.209
	c0,0.384-0.296,0.577-0.894,0.577h-8.841c-0.694,0-1.042-0.202-1.042-0.608V40.51c0-0.384,0.348-0.577,1.042-0.577h8.841
	C45.707,39.933,46.003,40.126,46.003,40.51 M23.734,29.978c-0.615,0.503-0.924,1.11-0.924,1.822c0,0.721,0.309,1.334,0.924,1.836
	c0.617,0.503,1.356,0.756,2.222,0.756c0.87,0,1.611-0.253,2.225-0.756c0.613-0.502,0.923-1.115,0.923-1.836
	c0-0.711-0.311-1.319-0.923-1.822c-0.614-0.505-1.354-0.755-2.225-0.755C25.09,29.223,24.351,29.473,23.734,29.978 M49.966,29.102
	c-0.104,0.543-0.46,0.815-1.093,0.815H29.736l4.482,4.949h0.186c0.023-0.574,0.494-0.859,1.406-0.859h14.362v-4.905H49.966z
	 M44.308,18.33l0.015,0.134c1.107,0.366,1.662,1.201,1.662,2.505v1.111c0,1.204-0.473,1.817-1.418,1.837
	c-0.629,0.011-1.301-0.36-2.021-1.113l-3.163-3.303c-0.729-0.761-1.555-1.141-2.478-1.141h-4.261c-0.659,0-1.195,0.188-1.608,0.563
	c-0.365,0.345-0.544,0.78-0.544,1.303v5.734c0,0.602,0.2,1.116,0.599,1.541c0.398,0.422,0.94,0.636,1.617,0.636h15.156
	c1.54,0,2.309-0.681,2.309-2.044v-4.918c0-1.975-1.404-2.969-4.207-2.979C45.295,18.188,44.742,18.231,44.308,18.33 M37.448,23.146
	l0.926,0.95h-3.077c-0.936,0-1.417-0.282-1.439-0.846c-0.02-0.541,0.406-0.813,1.285-0.813h0.271
	C36.327,22.436,37.004,22.671,37.448,23.146"/>
<g>
	<path fill="#FFFFFF" d="M19.722,256.784h-4.944c-0.436,0-0.657-0.17-0.657-0.51v-1.652c0-0.363,0.196-0.622,0.585-0.784
		l7.393-2.704c0.731-0.281,1.343-0.421,1.83-0.421H26.6c0.512,0,0.769,0.208,0.769,0.631v37.816c0,1.243,0.219,2.126,0.658,2.646
		c0.439,0.521,1.268,0.821,2.488,0.9c0.66,0.062,0.988,0.321,0.988,0.782v1.716c0,0.397-0.243,0.598-0.73,0.598H16.136
		c-0.587,0-0.88-0.209-0.88-0.631v-1.532c0-0.54,0.439-0.881,1.317-1.022c1.097-0.16,1.896-0.48,2.398-0.962
		c0.499-0.48,0.75-1.321,0.75-2.526V256.784z"/>
	<path fill="#FFFFFF" d="M58.949,256.784H46.616c-1.78,0-2.866,0.894-3.257,2.685c-0.095,0.438-0.189,0.728-0.271,0.862
		c-0.09,0.143-0.34,0.21-0.753,0.21h-1.976c-0.439,0-0.661-0.188-0.661-0.568l0.405-8.269c0.024-0.541,0.391-0.812,1.097-0.812
		c0.293,0,0.892,0.09,1.794,0.271c1.048,0.181,1.951,0.271,2.707,0.271h17.127c0.586,0,0.878,0.19,0.878,0.572v3.366
		c-5.903,10.743-8.856,20.201-8.856,28.379c0,0.94,0.063,2.192,0.184,3.757c0.121,1.503,0.182,2.584,0.182,3.247
		c0,3.786-1.571,5.681-4.721,5.681c-1.535,0-2.67-0.511-3.4-1.532c-0.734-1.021-1.1-2.232-1.1-3.635
		c0-3.585,1.343-8.911,4.026-15.98C52.705,268.219,55.68,262.053,58.949,256.784z"/>
</g>
</svg>
