<?xml version="1.0" encoding="utf-8"?>
<!-- Generator: Adobe Illustrator 15.1.0, SVG Export Plug-In . SVG Version: 6.00 Build 0)  -->
<!DOCTYPE svg PUBLIC "-//W3C//DTD SVG 1.0//EN" "http://www.w3.org/TR/2001/REC-SVG-20010904/DTD/svg10.dtd">
<svg version="1.0" id="Calque_1" xmlns="http://www.w3.org/2000/svg" xmlns:xlink="http://www.w3.org/1999/xlink" x="0px" y="0px"
	 width="90.71px" height="663.31px" viewBox="0 0 90.71 663.31" enable-background="new 0 0 90.71 663.31" xml:space="preserve">
<path fill="#FFFFFF" d="M20.705,625.585c0-3.074-2.527-4.623-7.579-4.641c-2.391-0.012-4.196,0.201-5.411,0.646
	c-1.93,0.701-2.893,2.031-2.893,3.994v7.716h0.202c0.612-3.435,2.296-5.192,5.048-5.283c1.827-0.075,2.738,0.628,2.738,2.11v3.494
	c0,0.718-0.295,1.428-0.875,2.131l-5.671,6.96c-0.96,1.175-1.442,2.248-1.442,3.212v9.16c0,1.961,0.832,3.291,2.489,3.992
	c1.123,0.488,2.891,0.737,5.297,0.737c2.485,0,4.313-0.249,5.495-0.737c1.736-0.719,2.602-2.049,2.602-3.992v-8.84h-0.16
	c-0.322,1.595-0.653,2.682-0.981,3.264c-0.761,1.361-1.966,2.045-3.608,2.045c-2.14,0-3.214-0.764-3.214-2.275v-0.893
	c0-0.557,0.452-1.403,1.35-2.555l4.662-5.967c0.869-1.1,1.348-1.74,1.438-1.929c0.34-0.688,0.514-1.659,0.514-2.92V625.585z
	 M35.602,659.331c-0.67-0.223-1.263-0.725-1.77-1.49c-0.565-0.861-0.85-1.801-0.85-2.823v-33.935l-9.695,7.025v0.484
	c0.838,0.045,1.399,0.274,1.684,0.699c0.284,0.419,0.431,1.097,0.431,2.031v23.672c0,2.189-0.869,3.63-2.604,4.336v0.115h12.805
	V659.331z M53.734,659.267c-0.877-0.336-1.317-0.993-1.317-1.953v-20.318c0-1.346-0.378-2.4-1.132-3.149
	c-0.753-0.745-1.747-1.13-2.972-1.147c-1.855,0-3.4,0.645-4.643,1.934v-14.697l-7.492,5.969v0.186
	c0.867,0.048,1.298,0.672,1.298,1.881v31.477h7.473v-0.18c-0.852-0.385-1.278-1.082-1.278-2.092v-17.378
	c0-1.313,0.491-1.978,1.476-1.978c1.008,0,1.505,0.644,1.505,1.928v19.699h7.083V659.267z M70.285,626.864
	c0-3.955-2.616-5.945-7.85-5.945c-5.336,0-8.008,1.99-8.008,5.945v25.971c0,2.805,0.767,4.723,2.288,5.768
	c1.201,0.807,3.112,1.186,5.743,1.121c2.659-0.079,4.592-0.571,5.785-1.49c1.361-1.059,2.041-2.856,2.041-5.398V626.864z
	 M63.579,649.051c0,1.329-0.404,2.001-1.209,2.019c-0.84,0.017-1.26-0.653-1.26-2.019v-17.224c0-1.561,0.437-2.34,1.302-2.34
	c0.798,0,1.184,0.779,1.184,2.34L63.579,649.051z M88.24,626.864c0-3.955-2.614-5.945-7.844-5.945c-5.342,0-8.008,1.99-8.008,5.945
	v25.971c0,2.805,0.759,4.723,2.29,5.768c1.191,0.807,3.104,1.186,5.735,1.121c2.665-0.079,4.588-0.571,5.791-1.49
	c1.361-1.059,2.035-2.856,2.035-5.398V626.864z M81.536,649.051c0,1.329-0.406,2.001-1.213,2.019
	c-0.836,0.017-1.25-0.653-1.25-2.019v-17.224c0-1.561,0.427-2.34,1.296-2.34c0.796,0,1.189,0.779,1.189,2.34L81.536,649.051z"/>
<path fill="#FFFFFF" d="M44.403,549.372H27.57l0.028,0.495c0.746,0.554,0.952,1.603,0.636,3.149l-4.979,24.564l-4.129-24.989
	c-0.27-1.665,0.103-2.673,1.118-3.034v-0.186H3.555v0.186c2.333,0.738,3.494,2.922,3.494,6.572v51.406
	c0,3.494-1.439,5.824-4.313,6.988v0.188h16.953v-0.188c-1.122-0.404-2.1-1.204-2.941-2.395c-0.917-1.34-1.371-2.861-1.371-4.557
	v-26.615h0.292l5.652,32.961h1.191l6.801-33.15h0.334l-0.04,27.68c0,3.242-1.101,5.252-3.301,6.036v0.228h17.87v-0.266
	c-2.322-0.906-3.491-2.936-3.491-6.072v-52.285c0-3.037,1.24-5.174,3.718-6.417V549.372z M69.862,608.22v-31.32
	c0-1.854-0.496-3.361-1.487-4.543c-0.986-1.172-2.405-1.762-4.23-1.762h-8.924c-2.354,0-4.113,1.203-5.275,3.605l-2.082,4.365
	c-0.668,1.394-1,2.621-1,3.684c2.104-2.302,4.645-3.455,7.618-3.455h3.75c0.842,0,1.263,0.377,1.263,1.14v1.253
	c0,0.684-0.421,1.383-1.263,2.08l-11.368,9.535c-0.701,0.582-1.132,1.23-1.308,1.941c-0.17,0.711-0.257,2.188-0.257,4.441v10.67
	c0,3.238,1.694,4.857,5.093,4.857h4.457c2.059,0,3.671-1.709,4.829-5.127h0.116c0.218,3.418,1.508,5.127,3.862,5.127h8.029
	C70.475,613.345,69.862,611.181,69.862,608.22 M57.266,605.823c-1.117,0-1.676-0.55-1.676-1.664v-5.546
	c0-1.769,0.46-3.013,1.383-3.718l2.521-2.018v12.945H57.266z M85.17,556.016c-1.265-1.373-2.79-2.055-4.572-2.055
	c-1.815,0-3.347,0.682-4.611,2.055c-1.262,1.365-1.893,3.013-1.893,4.933c0,1.924,0.631,3.566,1.893,4.941
	c1.265,1.365,2.796,2.049,4.611,2.049c1.782,0,3.308-0.684,4.572-2.049c1.263-1.375,1.895-3.018,1.895-4.941
	C87.064,559.028,86.433,557.381,85.17,556.016 M87.359,614.255c-1.365-0.227-2.041-1.033-2.041-2.43v-42.487l-12.414,9.954v0.416
	c1.433,0.049,2.156,1.085,2.156,3.111v31.893h12.299V614.255z"/>
<rect x="1.319" width="88.843" height="452.087"/>
<path fill="#FFFFFF" d="M52.873,410.669v0.082c3.685,0.932,5.521,2.555,5.521,4.858v4.783H25.087c-2.555,0-4.083-0.815-4.575-2.46
	h-0.129v12.865h0.129c0.512-1.65,2.033-2.482,4.575-2.482h35.63c2.519,0,4.185,1.023,4.994,3.063h0.131v-20.709H52.873z
	 M56.783,391.019l0.021,0.236c1.711,0.652,2.564,2.139,2.564,4.463v1.982c0,2.146-0.727,3.242-2.19,3.277
	c-0.971,0.018-2.006-0.648-3.116-1.983l-4.89-5.889c-1.126-1.357-2.402-2.034-3.825-2.034h-6.587c-1.016,0-1.841,0.333-2.479,1.002
	c-0.564,0.618-0.842,1.394-0.842,2.327v10.224c0,1.071,0.309,1.984,0.925,2.744c0.616,0.758,1.45,1.136,2.499,1.136h23.414
	c2.375,0,3.564-1.215,3.564-3.646v-8.77c0-3.521-2.168-5.291-6.5-5.312C58.305,390.759,57.453,390.841,56.783,391.019
	 M46.188,399.599l1.427,1.695h-4.75c-1.448,0-2.19-0.505-2.227-1.508c-0.029-0.968,0.63-1.454,1.987-1.454h0.419
	C44.453,398.332,45.5,398.757,46.188,399.599 M52.873,357.891v0.08c3.685,0.931,5.521,2.553,5.521,4.862v4.777H25.087
	c-2.555,0-4.083-0.816-4.575-2.454h-0.129v12.862h0.129c0.512-1.652,2.033-2.482,4.575-2.482h35.63c2.519,0,4.185,1.023,4.994,3.064
	h0.131v-20.71H52.873z M35.439,338.29v10.276h0.208c0.178-0.882,0.732-1.321,1.667-1.321c0.174,0,0.359,0.017,0.554,0.051
	l10.248,2.194v0.132l-10.173,2.033c-0.283,0.056-0.536,0.078-0.759,0.078c-0.78,0-1.29-0.341-1.537-1.03h-0.208v10.228l0.178-0.029
	c0.216-0.865,0.99-1.434,2.326-1.717l25.968-5.494c0.969-0.196,1.812-0.291,2.516-0.291c2.094,0,3.109,0.855,3.036,2.564
	c-0.057,1.074-1.116,2.341-3.196,3.804h11.513c1.234-1.251,1.825-2.97,1.771-5.151c-0.073-2.749-1.14-4.729-3.221-5.947
	c-0.968-0.545-2.975-1.143-6.021-1.797l-31.938-6.864c-1.672-0.353-2.591-0.927-2.753-1.718H35.439z M54.533,321.967
	c-1.848,0-3.377,0.72-4.592,2.164c-0.18,0.193-1.014,1.525-2.509,3.986c-0.866,1.428-1.784,2.146-2.749,2.146
	c-1.725-0.021-2.542-1.139-2.457-3.356c0.106-2.608,1.25-4.167,3.434-4.674v-0.265h-5.069c-3.81,0-5.702,2.664-5.681,8
	c0.034,5.708,2.031,8.561,5.992,8.561h5.602c1.516,0,2.876-0.732,4.069-2.193c0.212-0.25,0.944-1.4,2.193-3.463
	c0.848-1.373,1.312-2.122,1.396-2.245c0.641-0.739,1.392-1.125,2.274-1.159c0.933-0.016,1.601,0.367,2.015,1.159
	c0.328,0.671,0.465,1.577,0.421,2.722c-0.059,1.338-0.678,2.491-1.858,3.46c-1.054,0.865-2.227,1.338-3.537,1.426l-0.027,0.268
	h7.213c2.363,0,3.958-0.916,4.783-2.75c0.546-1.157,0.82-2.969,0.82-5.413c0-3.032-0.477-5.223-1.427-6.579
	c-0.84-1.197-2.169-1.794-3.959-1.794H54.533z M61.827,292.59H20.383l6.945,8.821h0.126c0.091-1.037,0.812-1.557,2.173-1.557
	l5.813,0.026v5.599c0,1.145,0.334,2.066,1.004,2.76c0.666,0.696,1.561,1.044,2.691,1.044h20.478c4.147,0,6.229-1.215,6.229-3.646
	v-2.165c0-1.147-0.21-1.938-0.631-2.376c-0.18-0.176-0.944-0.635-2.303-1.374c1.203-0.494,1.851-0.777,1.957-0.846
	c0.652-0.458,0.977-1.17,0.977-2.143v-5.729C64.593,292.063,63.254,292.59,61.827,292.59 M60.296,300.936
	c0,0.991-0.51,1.479-1.529,1.479H42.675c-1.16,0-1.742-0.488-1.742-1.479c0-0.828,0.566-1.244,1.692-1.244h16.114
	C59.778,299.692,60.296,300.108,60.296,300.936 M20.383,284.638c0,1.443,0.56,2.634,1.686,3.563
	c1.045,0.882,2.256,1.325,3.647,1.325h8.849v-0.133c-3.679-0.758-5.397-2.345-5.15-4.755H20.383z M35.947,271.826
	c-0.659,1.128-0.985,3.142-0.985,6.047c0,2.75,0.367,4.749,1.108,5.999c1.092,1.85,3.145,2.773,6.156,2.773l17.251-0.027
	c3.223,0,5.273-1.012,6.154-3.04c0.353-0.858,0.536-2.762,0.556-5.706c0.02-2.814-0.195-4.708-0.635-5.676
	c-0.91-1.991-2.986-2.986-6.211-2.986l-17.144-0.027C39.048,269.184,36.959,270.064,35.947,271.826 M58.394,277.874
	c0,0.936-0.465,1.401-1.396,1.401h-11.89c-1.341,0-1.989-0.475-1.957-1.428c0.035-0.862,0.689-1.291,1.957-1.291h11.89
	C57.929,276.556,58.394,276.993,58.394,277.874 M39.822,248.895c-3.149,0-4.708,1.615-4.675,4.834c0.02,2.008,0.747,3.7,2.188,5.07
	h-3.061l7.027,8.826h0.239c0.037-1.021,0.761-1.532,2.167-1.532h22.134v-8.744h-0.318c-0.158,0.967-0.788,1.45-1.875,1.45H43.23
	c-1.552,0-2.303-0.542-2.272-1.634c0-0.987,0.737-1.481,2.221-1.481h7.104l-6.313-6.79H39.822z M61.827,220.076H20.383l6.945,8.823
	h0.126c0.091-1.04,0.812-1.559,2.173-1.559l5.813,0.024v5.603c0,1.145,0.334,2.068,1.004,2.761c0.666,0.697,1.561,1.043,2.691,1.043
	h20.478c4.147,0,6.229-1.213,6.229-3.643v-2.167c0-1.147-0.21-1.938-0.631-2.377c-0.18-0.176-0.944-0.637-2.303-1.376
	c1.203-0.494,1.851-0.775,1.957-0.846c0.652-0.455,0.977-1.171,0.977-2.14v-5.733C64.593,219.548,63.254,220.076,61.827,220.076
	 M60.296,228.421c0,0.99-0.51,1.481-1.529,1.481H42.675c-1.16,0-1.742-0.491-1.742-1.481c0-0.825,0.566-1.237,1.692-1.237h16.114
	C59.778,227.184,60.296,227.596,60.296,228.421 M56.783,199.841l0.021,0.239c1.711,0.65,2.564,2.139,2.564,4.461v1.983
	c0,2.147-0.727,3.241-2.19,3.275c-0.971,0.018-2.006-0.644-3.116-1.982l-4.89-5.89c-1.126-1.355-2.402-2.034-3.825-2.034h-6.587
	c-1.016,0-1.841,0.336-2.479,1.004c-0.564,0.615-0.842,1.392-0.842,2.324v10.226c0,1.074,0.309,1.986,0.925,2.745
	c0.616,0.757,1.45,1.137,2.499,1.137h23.414c2.375,0,3.564-1.216,3.564-3.648v-8.769c0-3.522-2.168-5.291-6.5-5.311
	C58.305,199.585,57.453,199.664,56.783,199.841 M46.188,208.424l1.427,1.692h-4.75c-1.448,0-2.19-0.5-2.227-1.503
	c-0.029-0.971,0.63-1.455,1.987-1.455h0.419C44.453,207.158,45.5,207.579,46.188,208.424 M65.523,177.15
	c-0.158,0.966-0.717,1.452-1.688,1.452H20.383l6.861,8.822h0.21c0.039-1.019,0.761-1.531,2.173-1.531h36.215v-8.743H65.523z
	 M61.321,159.001H39.527c-1.282,0-2.331,0.354-3.151,1.056c-0.819,0.706-1.229,1.709-1.229,3.009v6.342
	c0,1.671,0.836,2.921,2.505,3.753l3.045,1.477c0.964,0.477,1.819,0.715,2.561,0.715c-1.603-1.499-2.406-3.302-2.406-5.414v-2.669
	c0-0.598,0.261-0.9,0.796-0.9h0.869c0.479,0,0.96,0.302,1.454,0.9l6.623,8.083c0.414,0.494,0.859,0.8,1.354,0.923
	c0.49,0.125,1.52,0.187,3.091,0.187h7.422c2.255,0,3.381-1.207,3.381-3.621v-3.168c0-1.462-1.189-2.606-3.564-3.438v-0.077
	c2.375-0.158,3.564-1.072,3.564-2.747v-5.705C64.89,158.57,63.384,159.001,61.321,159.001 M59.662,167.955
	c0,0.792-0.39,1.189-1.162,1.189h-3.854c-1.233,0-2.095-0.325-2.592-0.978l-1.397-1.797h9.006V167.955z M65.632,115.758
	c-0.389,1.02-1.132,1.53-2.248,1.53H40.008c-1.533,0-2.744,0.458-3.644,1.373c-0.827,0.866-1.25,2.016-1.271,3.463
	c0,2.094,0.548,4.1,1.636,6.024c-1.068,0.772-1.615,2.074-1.636,3.907c0,2.043,0.731,3.77,2.188,5.175h-3.007l7.002,8.826h0.184
	c0.073-1.021,0.792-1.533,2.167-1.533h22.215v-8.743h-0.318c-0.158,0.967-0.788,1.45-1.875,1.45H43.23
	c-1.516,0-2.272-0.509-2.272-1.532c0-1.055,0.737-1.583,2.221-1.583h22.663v-8.349h-0.21c-0.389,1.023-1.132,1.534-2.248,1.534
	H43.23c-1.516,0-2.272-0.511-2.272-1.534c0-1.054,0.737-1.585,2.221-1.585h22.663v-8.423H65.632z M61.321,97.58H39.527
	c-1.282,0-2.331,0.354-3.151,1.059c-0.819,0.702-1.229,1.709-1.229,3.012v6.34c0,1.672,0.836,2.923,2.505,3.75l3.045,1.48
	c0.964,0.475,1.819,0.711,2.561,0.711c-1.603-1.499-2.406-3.303-2.406-5.415v-2.667c0-0.6,0.261-0.898,0.796-0.898h0.869
	c0.479,0,0.96,0.298,1.454,0.898l6.623,8.082c0.414,0.496,0.859,0.804,1.354,0.923c0.49,0.126,1.52,0.186,3.091,0.186h7.422
	c2.255,0,3.381-1.202,3.381-3.618v-3.17c0-1.462-1.189-2.606-3.564-3.435v-0.08c2.375-0.155,3.564-1.073,3.564-2.747v-5.706
	C64.89,97.149,63.384,97.58,61.321,97.58 M59.662,106.535c0,0.795-0.39,1.19-1.162,1.19h-3.854c-1.233,0-2.095-0.326-2.592-0.979
	l-1.397-1.793h9.006V106.535z M35.439,84.426c0.455,0.333,1.035,0.572,1.745,0.716c-1.411,0.755-2.118,2.226-2.118,4.41
	c0,3.751,2.551,5.625,7.632,5.625l16.068-0.024c2.08,0,3.561-0.195,4.459-0.583c1.942-0.829,2.914-2.552,2.937-5.178
	c0.018-1.107-0.123-2.244-0.423-3.407h1.974c1.313,0,1.962,0.317,1.962,0.951c0,0.688-0.635,1.03-1.903,1.03h-0.688v6.579
	l1.002-0.025c2.537-0.036,4.236-0.609,5.098-1.721c0.831-1.054,1.225-3.079,1.193-6.074c-0.052-3.172-0.388-5.275-1.004-6.312
	c-1.01-1.674-3.173-2.509-6.5-2.509H39.108c-1.448,0-2.665-0.32-3.669-0.95V84.426z M59.399,86.247v0.375
	c0,0.686-0.457,1.029-1.38,1.029H44.362c-1.069,0-1.606-0.361-1.606-1.084v-0.319c0-0.684,0.537-1.026,1.606-1.026H58.02
	C58.942,85.22,59.399,85.563,59.399,86.247 M25.002,67.469c-0.948,0.897-1.426,1.98-1.426,3.249c0,1.285,0.478,2.378,1.426,3.273
	c0.956,0.897,2.097,1.348,3.43,1.348c1.346,0,2.492-0.451,3.438-1.348c0.948-0.895,1.426-1.988,1.426-3.273
	c0-1.269-0.478-2.352-1.426-3.249c-0.946-0.901-2.093-1.346-3.438-1.346C27.099,66.123,25.958,66.568,25.002,67.469 M65.523,65.908
	c-0.158,0.968-0.717,1.454-1.688,1.454H34.274l6.923,8.823h0.288c0.036-1.022,0.761-1.529,2.169-1.529h22.188v-8.747H65.523z
	 M56.783,46.702l0.021,0.238c1.711,0.653,2.564,2.143,2.564,4.468v1.98c0,2.146-0.727,3.24-2.19,3.276
	c-0.971,0.018-2.006-0.643-3.116-1.983l-4.89-5.891c-1.126-1.356-2.402-2.035-3.825-2.035h-6.587c-1.016,0-1.841,0.335-2.479,1.006
	c-0.564,0.615-0.842,1.389-0.842,2.323v10.223c0,1.074,0.309,1.989,0.925,2.749c0.616,0.753,1.45,1.134,2.499,1.134h23.414
	c2.375,0,3.564-1.217,3.564-3.644v-8.77c0-3.52-2.168-5.293-6.5-5.31C58.305,46.448,57.453,46.526,56.783,46.702 M46.188,55.288
	l1.427,1.693h-4.75c-1.448,0-2.19-0.502-2.227-1.507c-0.029-0.966,0.63-1.452,1.987-1.452h0.419
	C44.453,54.022,45.5,54.445,46.188,55.288"/>
<g>
	<path fill="#FFFFFF" d="M13.148,481.517c-2.795,1.059-5.17,1.588-7.127,1.588c-0.963,0-1.444-0.58-1.444-1.74v-2.049
		c0-0.785,0.141-1.375,0.42-1.768s0.978-0.828,2.096-1.307c1.491-0.682,3.524-2.064,6.103-4.148
		c2.577-2.082,5.093-4.865,7.546-8.348c1.894-2.695,3.012-4.156,3.354-4.379c0.342-0.221,0.932-0.332,1.771-0.332h3.866v74.105
		c0,0.752,0.527,1.418,1.584,1.998c0.9,0.479,1.451,0.982,1.653,1.51c0.201,0.531,0.303,1.922,0.303,4.174
		c0,0.889-0.544,1.332-1.63,1.332H10.307c-0.9,0-1.451-0.152-1.653-0.461c-0.202-0.307-0.303-1.057-0.303-2.252
		c0-1.707,0.085-2.766,0.256-3.176s0.815-0.803,1.934-1.178c1.738-0.58,2.608-1.416,2.608-2.51V481.517z"/>
	<path fill="#FFFFFF" d="M58.845,486.946c2.825-3.518,5.869-5.275,9.13-5.275c4.379,0,8.143,2.408,11.294,7.227
		c3.149,4.818,4.727,11.807,4.729,20.963c0,9.604-1.964,17.531-5.892,23.783c-3.93,6.254-9.153,9.381-15.675,9.381
		c-4.317,0-8.021-1.289-11.109-3.869c-3.091-2.578-5.583-6.713-7.477-12.4c-1.895-5.688-2.842-13.076-2.842-22.164
		c0-11,1.413-19.865,4.239-26.596c2.825-6.73,6.886-11.572,12.181-14.527c5.294-2.955,10.938-4.434,16.933-4.434
		c1.614,0,2.725,0.119,3.33,0.359c0.605,0.238,0.908,0.699,0.908,1.383c0,2.561-0.108,4.088-0.326,4.582
		c-0.217,0.496-0.978,0.744-2.282,0.744c-2.888,0-5.861,0.742-8.92,2.227c-3.06,1.486-5.194,3.586-6.405,6.299
		C59.45,477.343,58.845,481.448,58.845,486.946z M65.972,494.325c0-1.129-0.279-2.076-0.839-2.846
		c-0.559-0.77-1.32-1.154-2.282-1.154c-2.392,0-3.587,1.967-3.587,5.896v36.607c0,1.025,0.326,1.881,0.979,2.564
		s1.428,1.023,2.329,1.023c1.087,0,1.925-0.512,2.516-1.537c0.589-1.025,0.885-3.162,0.885-6.408V494.325z"/>
</g>
</svg>
