<?xml version="1.0" encoding="UTF-8" standalone="no"?>
<!-- Generator: Adobe Illustrator 15.1.0, SVG Export Plug-In . SVG Version: 6.00 Build 0)  -->

<svg
   xmlns:dc="http://purl.org/dc/elements/1.1/"
   xmlns:cc="http://creativecommons.org/ns#"
   xmlns:rdf="http://www.w3.org/1999/02/22-rdf-syntax-ns#"
   xmlns:svg="http://www.w3.org/2000/svg"
   xmlns="http://www.w3.org/2000/svg"
   xmlns:sodipodi="http://sodipodi.sourceforge.net/DTD/sodipodi-0.dtd"
   xmlns:inkscape="http://www.inkscape.org/namespaces/inkscape"
   version="1.1"
   id="Calque_1"
   x="0px"
   y="0px"
   width="150.8445"
   height="1131.3112"
   viewBox="0 0 150.84451 1131.3111"
   enable-background="new 0 0 68.03 504.57"
   xml:space="preserve"
   inkscape:version="0.48.4 r9939"
   sodipodi:docname="Titre.svg"><metadata
   id="metadata7972"><rdf:RDF><cc:Work
       rdf:about=""><dc:format>image/svg+xml</dc:format><dc:type
         rdf:resource="http://purl.org/dc/dcmitype/StillImage" /></cc:Work></rdf:RDF></metadata><defs
   id="defs7970" /><sodipodi:namedview
   pagecolor="#ffffff"
   bordercolor="#666666"
   borderopacity="1"
   objecttolerance="10"
   gridtolerance="10"
   guidetolerance="10"
   inkscape:pageopacity="0"
   inkscape:pageshadow="2"
   inkscape:window-width="1920"
   inkscape:window-height="1025"
   id="namedview7968"
   showgrid="false"
   fit-margin-top="0"
   fit-margin-left="0"
   fit-margin-right="0"
   fit-margin-bottom="0"
   inkscape:zoom="0.46772499"
   inkscape:cx="-301.36125"
   inkscape:cy="564.77311"
   inkscape:window-x="-2"
   inkscape:window-y="-3"
   inkscape:window-maximized="1"
   inkscape:current-layer="Calque_1" />
<path
   d="m 31.57425,1071.3757 c 0,-5.3865 -4.41,-8.0932 -13.2615,-8.118 -4.19175,-0.027 -7.353,0.3398 -9.4747501,1.125 -3.3795,1.2375 -5.06925,3.5685 -5.06925,6.993 v 13.5135 h 0.3555 c 1.0755,-6.0097 4.023,-9.0945 8.8402501,-9.2497 3.1995,-0.135 4.788,1.1002 4.788,3.6945 v 6.1132 c 0,1.2668 -0.51075,2.5088 -1.5255,3.7395 l -9.9270001,12.1815 c -1.68525,2.061 -2.53125,3.9398 -2.53125,5.6295 v 16.0358 c 0,3.429 1.458,5.7622 4.3605,6.9907 1.9642501,0.8528 5.0625001,1.287 9.2745001,1.287 4.3515,0 7.5465,-0.4342 9.62325,-1.287 3.033,-1.26 4.545,-3.5887 4.545,-6.9907 v -15.4755 h -0.26775 c -0.56925,2.7855 -1.152,4.6935 -1.728,5.715 -1.33425,2.3782 -3.44025,3.573 -6.31575,3.573 -3.7485,0 -5.62725,-1.3275 -5.62725,-3.9825 v -1.557 c 0,-0.9743 0.7875,-2.4615 2.3625,-4.4753 l 8.163,-10.4535 c 1.5255,-1.9282 2.3625,-3.0465 2.51775,-3.3682 0.5985,-1.2083 0.89325,-2.9025 0.89325,-5.112 v -16.5218 z m 26.091,59.094 c -1.17675,-0.396 -2.21175,-1.2712 -3.09825,-2.6145 -0.99,-1.503 -1.494,-3.15 -1.494,-4.9455 v -59.409 l -16.96725,12.2963 v 0.8527 c 1.4625,0.074 2.44575,0.4815 2.9475,1.2173 0.49725,0.7425 0.74925,1.926 0.74925,3.5617 v 41.4428 c 0,3.8385 -1.5255,6.363 -4.56075,7.6005 v 0.198 H 57.6675 v -0.2003 z m 31.74975,-0.1215 c -1.53675,-0.5827 -2.2995,-1.737 -2.2995,-3.4177 v -35.5793 c 0,-2.3557 -0.6705,-4.1985 -1.9845,-5.5057 -1.3275,-1.3095 -3.0645,-1.9868 -5.20425,-2.0138 -3.24675,0 -5.958,1.125 -8.13375,3.3795 v -25.7287 L 58.68,1071.936 v 0.3262 c 1.51425,0.077 2.268,1.1768 2.268,3.294 v 55.1115 h 13.08825 v -0.3195 c -1.494,-0.666 -2.24325,-1.89 -2.24325,-3.6585 v -30.4267 c 0,-2.2973 0.86625,-3.4583 2.5875,-3.4583 1.764,0 2.6325,1.1205 2.6325,3.3728 v 34.4902 h 12.402 v -0.3195 z m 28.9845,-56.7225 c 0,-6.9367 -4.58775,-10.413 -13.7475,-10.413 -9.3465,0 -14.01525,3.4763 -14.01525,10.413 v 45.4658 c 0,4.9072 1.33425,8.2687 3.99825,10.0957 2.10375,1.413 5.4495,2.0723 10.0575,1.9598 4.65975,-0.1328 8.037,-1.0013 10.1295,-2.6055 2.385,-1.8518 3.57975,-5.004 3.57975,-9.45 v -45.4658 z m -11.74725,38.8418 c 0,2.322 -0.70875,3.5032 -2.115,3.5302 -1.46925,0.034 -2.20275,-1.1452 -2.20275,-3.5302 v -30.1545 c 0,-2.7338 0.7605,-4.1018 2.27925,-4.1018 1.39275,0 2.07225,1.368 2.07225,4.1018 l -0.0338,30.1545 z m 43.1775,-38.8418 c 0,-6.9367 -4.5765,-10.413 -13.734,-10.413 -9.34875,0 -14.01975,3.4763 -14.01975,10.413 v 45.4658 c 0,4.9072 1.33425,8.2687 4.00725,10.0957 2.0925,1.413 5.44275,2.0723 10.05075,1.9598 4.662,-0.1328 8.0325,-1.0013 10.13175,-2.6055 2.38725,-1.8518 3.56625,-5.004 3.56625,-9.45 v -45.4658 z m -11.73825,38.8418 c 0,2.322 -0.7065,3.5032 -2.12175,3.5302 -1.4625,0.034 -2.18925,-1.1452 -2.18925,-3.5302 v -30.1545 c 0,-2.7338 0.756,-4.1018 2.268,-4.1018 1.39725,0 2.079,1.368 2.079,4.1018 l -0.036,30.1545 z"
   id="path7952"
   inkscape:connector-curvature="0"
   style="fill:#ffffff" />
<path
   d="m 73.07325,937.93046 h -29.475 l 0.06075,0.86625 c 1.29825,0.972 1.66725,2.808 1.107,5.51475 l -8.72325,43.0155 -7.2225,-43.7535 c -0.477,-2.916 0.17325,-4.68675 1.95075,-5.31 v -0.33075 H 1.5569999 v 0.33075 c 4.0815,1.287 6.1155,5.1165 6.1155,11.502 v 90.01574 c 0,6.1155 -2.5155,10.1948 -7.54650001,12.2265 v 0.3375 H 29.799 v -0.3375 c -1.953,-0.7065 -3.6675,-2.1015 -5.14575,-4.185 -1.5975,-2.349 -2.3985,-5.0107 -2.3985,-7.9807 v -46.59754 h 0.5175 l 9.891,57.70804 h 2.0835 l 11.9115,-58.04779 h 0.58725 l -0.06975,48.47179 c 0,5.6722 -1.93275,9.1935 -5.787,10.5615 v 0.4072 h 31.293 v -0.4725 c -4.06575,-1.5885 -6.11325,-5.1412 -6.11325,-10.6312 v -91.54804 c 0,-5.31675 2.1735,-9.06075 6.50925,-11.2365 v -0.5265 z M 117.657,1040.9692 v -54.83474 c 0,-3.2445 -0.87075,-5.88825 -2.601,-7.95825 -1.73475,-2.052 -4.21875,-3.0825 -7.416,-3.0825 H 92.02275 c -4.1265,0 -7.2045,2.106 -9.243,6.31575 l -3.64275,7.63875 c -1.17225,2.4435 -1.7505,4.5945 -1.7505,6.45075 3.68325,-4.02975 8.12925,-6.048 13.34025,-6.048 h 6.5655 c 1.47825,0 2.214,0.66375 2.214,1.99125 v 2.2005 c 0,1.1925 -0.73575,2.421 -2.214,3.64725 L 77.3865,1013.9805 c -1.22625,1.0237 -1.98,2.1532 -2.286,3.3975 -0.3015,1.2442 -0.45675,3.834 -0.45675,7.7737 v 18.6885 c 0,5.6723 2.9745,8.5073 8.919,8.5073 h 7.8075 c 3.6045,0 6.4215,-2.9993 8.45325,-8.982 h 0.2025 c 0.38475,5.9827 2.64375,8.982 6.77025,8.982 h 14.05125 c -2.12175,-2.4008 -3.1905,-6.1898 -3.1905,-11.3783 m -22.059,-4.1872 c -1.9575,0 -2.93175,-0.972 -2.93175,-2.9228 v -9.7065 c 0,-3.096 0.80325,-5.274 2.40975,-6.516 l 4.428,-3.5212 v 22.6665 h -3.906 z m 48.85875,-87.21679 c -2.2185,-2.403 -4.88925,-3.59325 -8.00775,-3.59325 -3.17475,0 -5.86125,1.188 -8.07075,3.59325 -2.21175,2.394 -3.321,5.2785 -3.321,8.64225 0,3.366 1.107,6.24375 3.321,8.64675 2.20725,2.385 4.896,3.5865 8.07075,3.5865 3.1185,0 5.787,-1.2015 8.00775,-3.5865 2.20725,-2.40075 3.3165,-5.28075 3.3165,-8.64675 0,-3.36375 -1.107,-6.246 -3.3165,-8.64225 M 148.293,1051.542 c -2.3895,-0.3938 -3.573,-1.8113 -3.573,-4.2525 v -74.39179 l -21.74175,17.42625 v 0.72225 c 2.511,0.0922 3.7755,1.908 3.7755,5.4495 v 55.84949 H 148.293 v -0.8032 z"
   id="path7954"
   inkscape:connector-curvature="0"
   style="fill:#ffffff" />
<rect
   x="3.5527137e-15"
   width="150.84451"
   height="767.59204"
   id="rect7956"
   y="-2.8472416e-05" />
<path
   d="m 87.90975,695.07221 v 0.144 c 6.444,1.6335 9.66825,4.47075 9.66825,8.50725 v 8.37 H 39.25125 c -4.4685,0 -7.1415,-1.4265 -8.01,-4.302 H 31.0185 v 22.527 h 0.22275 c 0.89325,-2.89125 3.5595,-4.3515 8.01,-4.3515 h 62.39025 c 4.41225,0 7.3305,1.791 8.748,5.37075 h 0.2295 v -36.2655 H 87.90975 z m 6.84,-34.40925 0.04725,0.42075 c 2.9925,1.1385 4.48425,3.7395 4.48425,7.81425 v 3.47175 c 0,3.75975 -1.2735,5.67225 -3.834,5.73525 -1.701,0.0337 -3.51225,-1.134 -5.45625,-3.4695 l -8.568,-10.31625 c -1.96425,-2.37375 -4.20525,-3.5595 -6.69825,-3.5595 h -11.529 c -1.782,0 -3.22425,0.585 -4.3425,1.75725 -0.98775,1.08 -1.48275,2.439 -1.48275,4.0725 v 17.901 c 0,1.87425 0.54675,3.48075 1.62675,4.806 1.07775,1.3275 2.54475,1.989 4.38525,1.989 h 40.98825 c 4.158,0 6.2415,-2.12625 6.2415,-6.37875 v -15.36075 c 0,-6.165 -3.798,-9.26325 -11.3805,-9.297 -1.818,-0.036 -3.3075,0.10575 -4.482,0.414 m -18.54675,15.03225 2.493,2.95875 h -8.3205 c -2.5245,0 -3.82725,-0.8775 -3.89025,-2.63475 -0.05175,-1.69425 1.098,-2.547 3.47625,-2.547 h 0.73575 c 2.47275,0 4.302,0.7425 5.50575,2.223 m 11.70675,-73.035 v 0.14175 c 6.444,1.63125 9.66825,4.4685 9.66825,8.51175 v 8.36775 H 39.25125 c -4.4685,0 -7.1415,-1.43325 -8.01,-4.2975 H 31.0185 v 22.52025 h 0.22275 c 0.89325,-2.89575 3.5595,-4.34475 8.01,-4.34475 h 62.39025 c 4.41225,0 7.3305,1.78875 8.748,5.36625 h 0.2295 v -36.2655 H 87.90975 z m -30.537,-34.31475 v 17.9955 H 57.744 c 0.31275,-1.548 1.28475,-2.3175 2.9205,-2.3175 0.29925,0 0.63,0.0292 0.96525,0.0945 l 17.95275,3.83625 v 0.234 l -17.80875,3.5595 c -0.504,0.0945 -0.945,0.14175 -1.341,0.14175 -1.36125,0 -2.25225,-0.60525 -2.6865,-1.80675 H 57.375 v 17.90325 l 0.324,-0.0472 c 0.378,-1.5165 1.728,-2.51325 4.077,-3.006 l 45.4635,-9.61875 c 1.69875,-0.34425 3.16575,-0.51075 4.3965,-0.51075 3.66975,0 5.44725,1.494 5.32125,4.48875 -0.10125,1.87875 -1.95975,4.09725 -5.598,6.65775 h 20.16225 c 2.16,-2.19375 3.195,-5.1975 3.105,-9.02025 -0.13275,-4.80825 -1.998,-8.28 -5.64525,-10.40625 -1.692,-0.95625 -5.211,-2.00475 -10.5435,-3.15 l -55.9215,-12.02175 c -2.9295,-0.6165 -4.536,-1.6245 -4.81725,-3.00375 H 57.37275 z M 90.8145,539.75921 c -3.23325,0 -5.91075,1.26675 -8.0415,3.789 -0.31725,0.342 -1.77075,2.673 -4.392,6.984 -1.512,2.49975 -3.12525,3.75075 -4.8105,3.75075 -3.024,-0.0337 -4.45275,-1.9935 -4.30425,-5.8725 0.1845,-4.572 2.187,-7.29675 6.0165,-8.1855 v -0.46575 H 66.402 c -6.66675,0 -9.981,4.6665 -9.945,14.01075 0.063,9.9945 3.56175,14.994 10.494,14.994 h 9.801 c 2.664,0 5.03775,-1.2825 7.13025,-3.8475 0.37575,-0.42975 1.6515,-2.448 3.8385,-6.057 1.48275,-2.403 2.29725,-3.71475 2.4435,-3.93075 1.12275,-1.296 2.44125,-1.97325 3.98475,-2.034 1.638,-0.027 2.80575,0.6435 3.52125,2.034 0.58275,1.17225 0.819,2.763 0.74025,4.7655 -0.099,2.34225 -1.1835,4.365 -3.24675,6.057 -1.8495,1.5165 -3.906,2.3445 -6.1965,2.49975 l -0.04725,0.4635 h 12.6315 c 4.131,0 6.92325,-1.60425 8.37225,-4.815 0.96075,-2.0295 1.43325,-5.193 1.43325,-9.47475 0,-5.3055 -0.83025,-9.144 -2.49075,-11.52 -1.47825,-2.097 -3.80025,-3.14325 -6.939,-3.14325 H 90.8145 z m 12.76875,-51.43725 H 31.0185 l 12.16125,15.45075 h 0.22275 c 0.15975,-1.818 1.42425,-2.72925 3.80025,-2.72925 l 10.17,0.0473 v 9.80325 c 0,2.00475 0.59625,3.61575 1.76175,4.833 1.17225,1.21725 2.7405,1.827 4.7205,1.827 h 35.8515 c 7.2675,0 10.91025,-2.12625 10.91025,-6.38775 v -3.78675 c 0,-2.007 -0.37575,-3.3885 -1.107,-4.16025 -0.3105,-0.306 -1.647,-1.11375 -4.02975,-2.4075 2.1105,-0.86175 3.24,-1.35675 3.4245,-1.4805 1.14525,-0.801 1.71225,-2.0475 1.71225,-3.7485 v -10.03275 c -2.18925,1.85175 -4.53825,2.772 -7.0335,2.772 m -2.67975,14.616 c 0,1.73475 -0.89325,2.592 -2.6775,2.592 H 70.047 c -2.0295,0 -3.0465,-0.8595 -3.0465,-2.592 0,-1.449 0.9855,-2.17575 2.961,-2.17575 h 28.21275 c 1.82475,0 2.72925,0.72675 2.72925,2.17575 m -69.885,-28.5368 c 0,2.529 0.98325,4.6125 2.952,6.2415 1.82925,1.5435 3.951,2.3175 6.3855,2.3175 h 15.498 v -0.234 c -6.444,-1.3275 -9.45675,-4.0995 -9.02025,-8.325 H 31.0185 z m 27.24525,-22.4325 c -1.14525,1.97325 -1.719,5.5035 -1.719,10.5885 0,4.81275 0.6435,8.31375 1.944,10.503 1.91025,3.23775 5.50125,4.8555 10.77525,4.8555 l 30.20625,-0.0472 c 5.643,0 9.234,-1.77075 10.7685,-5.319 0.62325,-1.5075 0.9405,-4.8375 0.981,-9.99225 0.0337,-4.92525 -0.33525,-8.244 -1.11375,-9.93825 -1.5975,-3.48525 -5.22675,-5.229 -10.86975,-5.229 l -30.02175,-0.0472 c -5.5215,-0.003 -9.1665,1.54125 -10.95075,4.626 m 39.312,10.5885 c 0,1.64025 -0.819,2.45475 -2.448,2.45475 H 74.3085 c -2.349,0 -3.48075,-0.837 -3.4245,-2.49975 0.0585,-1.50975 1.206,-2.26125 3.4245,-2.26125 h 20.81925 c 1.629,-0.002 2.448,0.765 2.448,2.30625 m -32.5215,-50.7375 c -5.51475,0 -8.244,2.826 -8.1855,8.46225 0.03375,3.51675 1.3095,6.47775 3.834,8.883 h -5.364 l 12.30525,15.4485 h 0.423 c 0.0585,-1.78425 1.32975,-2.682 3.79125,-2.682 h 38.75625 v -15.309 h -0.55575 c -0.2835,1.692 -1.377,2.5425 -3.285,2.5425 H 71.028 c -2.72025,0 -4.041,-0.95175 -3.9825,-2.8665 0,-1.728 1.29375,-2.58975 3.89025,-2.58975 h 12.4335 l -11.052,-11.889 h -7.263 z m 38.529,-50.46075 H 31.0185 l 12.16125,15.44625 h 0.22275 c 0.15975,-1.82025 1.42425,-2.72475 3.80025,-2.72475 l 10.17,0.0428 v 9.80325 c 0,2.007 0.59625,3.6225 1.76175,4.8375 1.17225,1.21725 2.7405,1.827 4.7205,1.827 h 35.8515 c 7.2675,0 10.91025,-2.124 10.91025,-6.3765 v -3.798 c 0,-2.00475 -0.37575,-3.39075 -1.107,-4.16025 -0.3105,-0.30825 -1.647,-1.116 -4.02975,-2.412 2.1105,-0.864 3.24,-1.3545 3.4245,-1.476 1.14525,-0.801 1.71225,-2.05425 1.71225,-3.74625 v -10.04175 c -2.18925,1.854 -4.53825,2.77875 -7.0335,2.77875 m -2.67975,14.616 c 0,1.73025 -0.89325,2.592 -2.6775,2.592 H 70.047 c -2.0295,0 -3.0465,-0.86175 -3.0465,-2.592 0,-1.449 0.9855,-2.17125 2.961,-2.17125 h 28.21275 c 1.82475,-10e-4 2.72925,0.72225 2.72925,2.17125 m -6.15375,-50.0445 0.04725,0.41625 c 2.9925,1.13625 4.48425,3.744 4.48425,7.812 v 3.47175 c 0,3.75975 -1.2735,5.67225 -3.834,5.733 -1.701,0.0315 -3.51225,-1.125 -5.45625,-3.4695 l -8.568,-10.314 c -1.96425,-2.3715 -4.20525,-3.5595 -6.69825,-3.5595 h -11.529 c -1.782,0 -3.22425,0.58275 -4.3425,1.75725 -0.98775,1.07775 -1.48275,2.4345 -1.48275,4.07025 v 17.90325 c 0,1.881 0.54675,3.4785 1.62675,4.80825 1.07775,1.3275 2.54475,1.99125 4.38525,1.99125 h 40.98825 c 4.158,0 6.2415,-2.1285 6.2415,-6.38325 v -15.3585 c 0,-6.16725 -3.798,-9.26325 -11.3805,-9.297 -1.818,-0.0337 -3.3075,0.108 -4.482,0.4185 m -18.54675,15.02775 2.493,2.961 h -8.3205 c -2.5245,0 -3.82725,-0.87525 -3.89025,-2.6325 -0.05175,-1.701 1.098,-2.54475 3.47625,-2.54475 h 0.73575 c 2.47275,0 4.302,0.738 5.50575,2.21625 m 33.85575,-54.76049 c -0.2835,1.692 -1.26,2.54249 -2.95875,2.54249 H 31.0185 l 12.01275,15.4485 h 0.37125 c 0.06525,-1.78425 1.332,-2.682 3.80025,-2.682 h 63.41175 v -15.30689 h -0.55575 z m -7.3575,-31.77675 h -38.16 c -2.24775,0 -4.0815,0.61875 -5.52375,1.8495 -1.431,1.23525 -2.1465,2.99475 -2.1465,5.2695 v 11.10375 c 0,2.925 1.4625,5.11875 4.392,6.5745 l 5.32575,2.58075 c 1.68525,0.837 3.18375,1.25325 4.47975,1.25325 -2.80575,-2.62125 -4.2075,-5.78025 -4.2075,-9.477 v -4.6755 c 0,-1.04625 0.45675,-1.575 1.39275,-1.575 h 1.51875 c 0.83925,0 1.6785,0.5265 2.547,1.575 l 11.59875,14.1525 c 0.7155,0.86175 1.503,1.404 2.36475,1.61775 0.864,0.2205 2.6685,0.324 5.4135,0.324 h 12.99825 c 3.94875,0 5.91975,-2.1105 5.91975,-6.336 v -5.55075 c 0,-2.556 -2.08575,-4.56075 -6.2415,-6.012 v -0.13725 c 4.158,-0.27675 6.2415,-1.8765 6.2415,-4.8105 v -9.98775 c -1.665,1.5075 -4.30425,2.26125 -7.91325,2.26125 m -2.907,15.678 c 0,1.386 -0.68175,2.08125 -2.03625,2.08125 h -6.75 c -2.1555,0 -3.66525,-0.56925 -4.53825,-1.7145 l -2.448,-3.14325 h 15.7725 v 2.7765 z m 10.4445,-91.39725 c -0.675,1.791 -1.98,2.682 -3.9285,2.682 h -40.932 c -2.67975,0 -4.79925,0.801 -6.37875,2.40525 -1.45125,1.51425 -2.18925,3.528 -2.22525,6.06375 0,3.66525 0.963,7.1775 2.86425,10.54575 -1.86975,1.35225 -2.82825,3.63375 -2.86425,6.84225 0,3.5775 1.2825,6.6015 3.84075,9.06525 h -5.274 l 12.258,15.453 h 0.324 c 0.1305,-1.78875 1.39275,-2.6865 3.79575,-2.6865 h 38.89575 v -15.3045 h -0.55575 c -0.2835,1.68975 -1.377,2.538 -3.285,2.538 H 71.028 c -2.66175,0 -3.9825,-0.89325 -3.9825,-2.67975 0,-1.8495 1.29375,-2.7765 3.89025,-2.7765 h 39.67875 v -14.6184 h -0.37575 c -0.675,1.79325 -1.98,2.68425 -3.9285,2.68425 H 71.028 c -2.66175,0 -3.9825,-0.891 -3.9825,-2.68425 0,-1.845 1.29375,-2.77425 3.89025,-2.77425 h 39.67875 v -14.75325 h -0.37575 z m -7.5375,-31.82625 h -38.16 c -2.24775,0 -4.0815,0.621 -5.52375,1.85625 -1.431,1.23075 -2.1465,2.988 -2.1465,5.27175 v 11.10375 c 0,2.92725 1.4625,5.1165 4.392,6.56325 l 5.32575,2.592 c 1.68525,0.8325 3.18375,1.2465 4.47975,1.2465 -2.80575,-2.62125 -4.2075,-5.7825 -4.2075,-9.47925 v -4.66875 c 0,-1.05075 0.45675,-1.57275 1.39275,-1.57275 h 1.51875 c 0.83925,0 1.6785,0.522 2.547,1.57275 l 11.59875,14.15025 c 0.7155,0.86625 1.503,1.4085 2.36475,1.61775 0.864,0.21825 2.6685,0.32625 5.4135,0.32625 h 12.99825 c 3.94875,0 5.91975,-2.10825 5.91975,-6.336 v -5.5485 c 0,-2.5605 -2.08575,-4.563 -6.2415,-6.01425 v -0.14175 c 4.158,-0.2745 6.2415,-1.8765 6.2415,-4.8105 v -9.99 c -1.665,1.50975 -4.30425,2.26125 -7.91325,2.26125 m -2.907,15.6825 c 0,1.3905 -0.68175,2.0835 -2.03625,2.0835 h -6.75 c -2.1555,0 -3.66525,-0.57375 -4.53825,-1.7145 l -2.448,-3.141 h 15.7725 v 2.772 z m -42.4215,-38.7135 c 0.8055,0.585 1.8225,1.00125 3.05775,1.251 -2.46375,1.323 -3.70125,3.897 -3.70125,7.72425 0,6.56775 4.46175,9.846 13.365,9.846 l 28.12725,-0.0428 c 3.636,0 6.2325,-0.3375 7.81425,-1.01925 3.393,-1.449 5.0985,-4.4685 5.1345,-9.06525 0.0293,-1.9395 -0.2205,-3.93075 -0.73575,-5.96475 h 3.45375 c 2.29725,0 3.42675,0.55125 3.42675,1.665 0,1.2015 -1.1115,1.80225 -3.32775,1.80225 h -1.2015 v 11.52 l 1.755,-0.0427 c 4.4415,-0.0652 7.41375,-1.06875 8.928,-3.0105 1.449,-1.8495 2.14425,-5.3955 2.08125,-10.64025 -0.0855,-5.553 -0.68175,-9.234 -1.755,-11.052 -1.76625,-2.9295 -5.553,-4.39425 -11.3805,-4.39425 h -48.609 c -2.53575,0 -4.66875,-0.56025 -6.4305,-1.66275 v 13.086 z m 41.9625,3.18825 v 0.65475 c 0,1.19925 -0.801,1.8 -2.41425,1.8 H 73.008 c -1.87875,0 -2.81925,-0.63225 -2.81925,-1.8945 v -0.56025 c 0,-1.197 0.9405,-1.8 2.81925,-1.8 h 23.913 c 1.611,0.002 2.41425,0.603 2.41425,1.8 M 39.105,94.153616 c -1.6605,1.5705 -2.4975,3.4695 -2.4975,5.688 0,2.250004 0.837,4.164754 2.4975,5.728504 1.67175,1.57275 3.672,2.3625 6.0075,2.3625 2.35125,0 4.3605,-0.792 6.02325,-2.3625 1.65375,-1.566 2.49075,-3.4785 2.49075,-5.728504 0,-2.2185 -0.837,-4.1175 -2.49075,-5.688 -1.6605,-1.575 -3.672,-2.36025 -6.02325,-2.36025 -2.3355,0 -4.33575,0.78525 -6.0075,2.36025 m 70.95375,-2.7315 c -0.2835,1.692 -1.26,2.5425 -2.95875,2.5425 H 55.341 l 12.123,15.450754 h 0.50625 c 0.06075,-1.78875 1.32975,-2.682 3.80025,-2.682 h 38.844 V 91.422116 h -0.55575 z m -15.309,-33.626255 0.04725,0.41625 c 2.9925,1.1385 4.48425,3.74625 4.48425,7.821 v 3.46725 c 0,3.75975 -1.2735,5.67225 -3.834,5.7375 -1.701,0.0315 -3.51225,-1.125 -5.45625,-3.47175 l -8.568,-10.314 c -1.96425,-2.37375 -4.20525,-3.5595 -6.69825,-3.5595 h -11.529 c -1.782,0 -3.22425,0.58275 -4.3425,1.755 -0.98775,1.07775 -1.48275,2.4345 -1.48275,4.0725 v 17.89875 c 0,1.87875 0.54675,3.483 1.62675,4.8105 1.07775,1.32075 2.54475,1.98675 4.38525,1.98675 h 40.98825 c 4.158,0 6.2415,-2.13075 6.2415,-6.37875 v -15.3585 c 0,-6.1605 -3.798,-9.26775 -11.3805,-9.297 -1.818,-0.036 -3.3075,0.10575 -4.482,0.414 m -18.54675,15.03 2.493,2.9655 h -8.3205 c -2.5245,0 -3.82725,-0.87975 -3.89025,-2.63925 -0.05175,-1.692 1.098,-2.5425 3.47625,-2.5425 h 0.73575 c 2.47275,-0.002 4.302,0.738 5.50575,2.21625"
   id="path7958"
   inkscape:connector-curvature="0"
   style="fill:#ffffff" />
<g
   id="g7960"
   transform="matrix(2.25,0,0,2.25,-2.2230001,-3.8589604e-5)">
	<g
   id="g7962">
		<path
   d="m 19.664,346.892 v 51.484 c 0,3.843 0.128,6.305 0.386,7.381 0.256,1.076 0.786,1.95 1.588,2.622 0.804,0.673 2.092,1.009 3.868,1.009 h 1.075 v 1.729 H 1.874 v -1.729 h 1.244 c 2.006,0 3.439,-0.309 4.299,-0.923 0.857,-0.613 1.438,-1.461 1.741,-2.537 0.299,-1.076 0.449,-3.594 0.449,-7.552 v -32.632 c 0,-2.92 -0.107,-4.747 -0.321,-5.477 -0.217,-0.73 -0.604,-1.346 -1.16,-1.846 -0.559,-0.499 -1.21,-0.748 -1.955,-0.748 -1.175,0 -2.607,0.48 -4.297,1.441 L 1.272,357.44 18.501,346.89 h 1.163 z"
   id="path7964"
   inkscape:connector-curvature="0"
   style="fill:#ffffff" />
		<path
   d="m 56.143,375.546 c 3.294,3.267 5.58,6.304 6.854,9.108 1.275,2.806 1.912,6.016 1.912,9.628 0,5.075 -1.418,9.369 -4.253,12.887 -2.836,3.516 -6.703,5.274 -11.602,5.274 -4.642,0 -8.23,-1.537 -10.764,-4.614 -2.536,-3.072 -3.804,-6.819 -3.804,-11.241 0,-3.382 0.732,-6.341 2.192,-8.878 1.461,-2.537 3.895,-4.844 7.304,-6.918 -3.695,-3.805 -6.074,-6.919 -7.132,-9.34 -1.062,-2.422 -1.59,-5.228 -1.59,-8.417 0,-4.188 1.332,-7.889 3.994,-11.098 2.665,-3.209 6.316,-4.814 10.959,-4.814 4.468,0 7.912,1.412 10.334,4.238 2.42,2.824 3.631,6.216 3.631,10.174 0,2.999 -0.652,5.632 -1.955,7.898 -1.304,2.27 -3.331,4.307 -6.08,6.113 z m -9.54,7.436 c -0.715,0.885 -1.231,1.672 -1.544,2.363 -0.46,1.076 -0.875,2.652 -1.248,4.728 -0.372,2.077 -0.559,4.247 -0.559,6.515 0,2.923 0.279,5.362 0.838,7.321 0.558,1.962 1.353,3.373 2.384,4.238 1.031,0.865 2.092,1.298 3.182,1.298 1.66,0 3.07,-0.827 4.23,-2.479 1.16,-1.653 1.742,-3.92 1.742,-6.802 0,-5.997 -3.008,-11.723 -9.025,-17.182 z m 6.918,-9.8 c 0.832,-1.538 1.454,-3.268 1.871,-5.189 0.413,-1.921 0.622,-4.016 0.622,-6.284 0,-4.034 -0.645,-7.129 -1.935,-9.281 -0.944,-1.614 -2.277,-2.422 -3.994,-2.422 -1.55,0 -2.866,0.749 -3.955,2.25 -1.087,1.497 -1.632,3.362 -1.632,5.591 0,2.269 0.608,4.612 1.826,7.035 1.217,2.419 3.617,5.187 7.197,8.3 z"
   id="path7966"
   inkscape:connector-curvature="0"
   style="fill:#ffffff" />
	</g>
</g>
</svg>